<?xml version="1.0" standalone="no"?><!DOCTYPE svg PUBLIC "-//W3C//DTD SVG 1.1//EN" "http://www.w3.org/Graphics/SVG/1.1/DTD/svg11.dtd"><svg t="1712498631840" class="icon" viewBox="0 0 1024 1024" version="1.1" xmlns="http://www.w3.org/2000/svg" p-id="12053" xmlns:xlink="http://www.w3.org/1999/xlink" width="200" height="200"><path d="M333.856717 319.489498l0 383.680473L230.878344 703.169971 230.878344 416.731216 185.170327 507.593644l22.578228 0 0 79.849606L64.570621 587.443249 173.055404 319.489498 333.856717 319.489498z" p-id="12054" fill="#ffffff"></path><path d="M417.026952 551.098483l0-78.196966c0-46.989197 11.564383-84.065628 34.69315-111.2385 23.128767-27.163663 55.069223-40.750099 95.819322-40.750099 40.750099 0 72.776514 13.491269 96.095615 40.475853 23.308869 26.983561 34.968419 64.155159 34.968419 111.51377l0 78.196966c0 46.998407-11.753695 84.074837-35.244712 111.2385-23.49818 27.172873-55.438637 40.751123-95.819322 40.751123-40.388872 0-72.234161-13.492292-95.544053-40.475853C428.677293 635.628692 417.026952 598.457094 417.026952 551.098483zM521.107425 451.424366l0 121.151267c0 22.397103 8.810666 33.591049 26.433022 33.591049 17.621333 0 26.433022-11.193947 26.433022-33.591049L573.97347 451.424366c0-22.388916-8.81169-33.592073-26.433022-33.592073C529.918092 417.832294 521.107425 429.03545 521.107425 451.424366z" p-id="12055" fill="#ffffff"></path><path d="M760.003374 319.489498l199.778023 0-61.122079 145.447627c21.505803 14.715143 37.3517 30.94171 47.539736 48.671513 10.187013 17.739013 15.280008 38.864146 15.280008 63.386656 0 37.732369-13.113669 68.196195-39.33282 91.399663-26.227338 23.203468-60.087517 34.805714-101.5877 34.805714-20.002566 0-40.561811-3.024893-61.687968-9.055237L758.870574 587.748195c16.597003 7.550976 31.692816 11.31879 45.275159 11.31879 13.202697 0 23.486924-3.864004 30.844495-11.602246 7.356548-7.728008 11.035334-18.763342 11.035334-33.107025 0-15.46625-6.508227-27.916816-19.524682-37.352723-13.017478-9.426697-30.473035-14.148231-52.350298-14.148231l27.730575-74.138534L760.003374 428.718225 760.003374 319.489498z" p-id="12056" fill="#ffffff"></path></svg>