<?xml version="1.0" standalone="no"?><!DOCTYPE svg PUBLIC "-//W3C//DTD SVG 1.1//EN" "http://www.w3.org/Graphics/SVG/1.1/DTD/svg11.dtd"><svg t="1712498664896" class="icon" viewBox="0 0 1024 1024" version="1.1" xmlns="http://www.w3.org/2000/svg" p-id="15859" xmlns:xlink="http://www.w3.org/1999/xlink" width="200" height="200"><path d="M333.856717 319.489498l0 383.680473L230.878344 703.169971 230.878344 416.731216 185.170327 507.593644l22.578228 0 0 79.849606L64.570621 587.443249 173.055404 319.489498 333.856717 319.489498z" p-id="15860" fill="#ffffff"></path><path d="M381.211235 551.098483l0-78.196966c0-46.989197 11.564383-84.065628 34.69315-111.2385 23.128767-27.163663 55.069223-40.750099 95.819322-40.750099 40.750099 0 72.776514 13.491269 96.095615 40.475853 23.308869 26.983561 34.968419 64.155159 34.968419 111.51377l0 78.196966c0 46.998407-11.753695 84.074837-35.244712 111.2385-23.49818 27.172873-55.438637 40.751123-95.819322 40.751123-40.388872 0-72.234161-13.492292-95.544053-40.475853C392.861576 635.628692 381.211235 598.457094 381.211235 551.098483zM485.291708 451.424366l0 121.151267c0 22.397103 8.810666 33.591049 26.433022 33.591049 17.621333 0 26.433022-11.193947 26.433022-33.591049L538.157753 451.424366c0-22.388916-8.81169-33.592073-26.433022-33.592073C494.102375 417.832294 485.291708 429.03545 485.291708 451.424366z" p-id="15861" fill="#ffffff"></path><path d="M959.429379 319.489498l0 383.680473L856.451006 703.169971 856.451006 416.731216 810.742988 507.593644l22.578228 0 0 79.849606L690.143283 587.443249 798.628066 319.489498 959.429379 319.489498z" p-id="15862" fill="#ffffff"></path></svg>