<?xml version="1.0" standalone="no"?><!DOCTYPE svg PUBLIC "-//W3C//DTD SVG 1.1//EN" "http://www.w3.org/Graphics/SVG/1.1/DTD/svg11.dtd"><svg t="1718026196090" class="icon" viewBox="0 0 1024 1024" version="1.1" xmlns="http://www.w3.org/2000/svg" p-id="8633" xmlns:xlink="http://www.w3.org/1999/xlink" width="16" height="16"><path d="M289.952788 320.953849l0 114.117061-90.482781 0-4.965082 16.551978c34.568307 9.568936 60.870346 25.568329 78.895885 47.999201 18.017352 22.440082 27.034726 49.473785 27.034726 81.103156 0 35.30918-13.241582 64.551178-39.724747 87.723947-26.482141 23.171746-59.403948 34.757618-98.757235 34.757618-27.586288 0-54.810327-6.069229-81.654718-18.207687l0-90.481757c20.965497 9.568936 40.456411 14.344706 58.481949 14.344706 15.448854 0 27.767414-3.672646 36.965913-11.034311 9.18929-7.354502 13.793144-17.284665 13.793144-29.792537 0-13.974269-7.448646-26.207895-22.344914-36.68962-14.896268-10.483772-32.827663-15.725146-53.792137-15.725146-11.404748 0-22.620184 1.655709-33.655518 4.966105l39.723723-199.633736L289.952788 320.952826z" p-id="8634"></path><path d="M372.706537 550.931684l0-78.344323c0-47.077202 11.585873-84.223217 34.758642-111.447255 23.171746-27.214828 55.171554-40.826847 95.999424-40.826847 40.825824 0 72.913637 13.516852 96.274694 40.551578 23.354917 27.033703 35.035958 64.274886 35.035958 111.723547l0 78.344323c0 47.085388-11.776208 84.231403-35.311227 111.447255-23.542182 27.224038-55.543014 40.826847-95.998401 40.826847-40.46562 0-72.370261-13.516852-95.724155-40.551578C384.378367 635.620505 372.706537 598.380346 372.706537 550.931684zM476.982462 451.070302l0 121.378441c0 22.439058 8.827039 33.654494 26.482141 33.654494 17.655102 0 26.482141-11.215436 26.482141-33.654494L529.946744 451.070302c0-22.430872-8.827039-33.654494-26.482141-33.654494C485.809501 417.415808 476.982462 428.63943 476.982462 451.070302z" p-id="8635"></path><path d="M686.079734 550.931684l0-78.344323c0-47.077202 11.586896-84.223217 34.757618-111.447255 23.172769-27.214828 55.172577-40.826847 95.999424-40.826847 40.826847 0 72.913637 13.516852 96.274694 40.551578 23.353894 27.033703 35.034934 64.274886 35.034934 111.723547l0 78.344323c0 47.085388-11.776208 84.231403-35.310204 111.447255-23.543206 27.224038-55.543014 40.826847-95.999424 40.826847-40.464597 0-72.370261-13.516852-95.724155-40.551578C697.751564 635.620505 686.079734 598.380346 686.079734 550.931684zM790.354636 451.070302l0 121.378441c0 22.439058 8.827039 33.654494 26.482141 33.654494 17.655102 0 26.483164-11.215436 26.483164-33.654494L843.319941 451.070302c0-22.430872-8.828063-33.654494-26.483164-33.654494C799.182698 417.415808 790.354636 428.63943 790.354636 451.070302z" p-id="8636"></path></svg>