<?xml version="1.0" standalone="no"?><!DOCTYPE svg PUBLIC "-//W3C//DTD SVG 1.1//EN" "http://www.w3.org/Graphics/SVG/1.1/DTD/svg11.dtd"><svg t="1713710086385" class="icon" viewBox="0 0 1024 1024" version="1.1" xmlns="http://www.w3.org/2000/svg" p-id="43837" width="16" height="16" xmlns:xlink="http://www.w3.org/1999/xlink"><path d="M109.064277 97.105447h200.682808c12.947393 0 25.894786-12.947393 25.894786-25.894786s-12.946501-25.894786-25.894786-25.894786H83.167707c-12.947393 0-25.894786 12.948285-25.894786 25.894786v692.685526H31.379027c-12.945609 0-25.894786 12.947393-25.894786 25.894786v90.631751c6.473696 12.945609 12.948285 25.894786 25.894786 25.894786h97.105448c12.947393 0 25.89657-12.948285 25.89657-25.894786v-97.105448c0-12.947393-12.948285-25.895678-25.895678-25.895678H109.065169V582.632685h200.681916c12.947393 0 19.421089-6.473696 19.421089-19.42109s-6.473696-25.894786-25.894786-25.894786H109.065169V97.105447z m142.420431 783.317277c0 12.945609 6.473696 25.894786 25.894786 25.894786h608.527471c12.945609 0 25.894786-12.948285 25.894786-25.894786v-97.105448c0-12.947393-12.948285-25.895678-25.894786-25.895678H277.379494c-12.947393 0-25.894786 12.948285-25.894786 25.895678v97.105448zM426.274514 608.527471c0 12.947393 12.947393 25.894786 25.894786 25.894786h433.737665c12.946501 0 25.894786-12.947393 25.894786-25.894786v-97.105448c0-12.947393-12.948285-25.894786-25.894786-25.894786H452.1693c-12.947393 0-25.894786 12.947393-25.894786 25.894786v97.105448z m0-246.000467c0 12.947393 12.947393 25.894786 25.894786 25.894786h433.737665c12.946501 0 25.894786-12.947393 25.894786-25.894786v-97.105448c0-12.947393-12.948285-25.893894-25.894786-25.893894H452.1693c-12.947393 0-25.894786 12.946501-25.894786 25.893894v97.105448z m0-239.526771c0 12.947393 12.947393 25.895678 25.894786 25.895678h433.737665c12.946501 0 25.894786-12.948285 25.894786-25.895678v-97.105447c0-12.946501-12.948285-25.894786-25.894786-25.894786H452.1693c-12.947393 0-25.894786 12.948285-25.894786 25.894786v97.105447z m-323.684825 252.474164V258.94786h6.474588v32.368482h200.682808c12.947393 0 19.421089 6.473696 19.421089 19.42109s-6.473696 25.894786-25.894786 25.894786H109.065169l-6.47548 38.842179z" p-id="43838" fill="#ffffff"></path></svg>