<?xml version="1.0" standalone="no"?><!DOCTYPE svg PUBLIC "-//W3C//DTD SVG 1.1//EN" "http://www.w3.org/Graphics/SVG/1.1/DTD/svg11.dtd"><svg t="1712802130725" class="icon" viewBox="0 0 1024 1024" version="1.1" xmlns="http://www.w3.org/2000/svg" p-id="9484" xmlns:xlink="http://www.w3.org/1999/xlink" width="200" height="200"><path d="M1008.19696 960H80.19696a16 16 0 0 1-16-16V16a16 16 0 0 1 32 0v912h912a16 16 0 0 1 0 32z" fill="#ffffff" p-id="9485"></path><path d="M944.19696 1024a16 16 0 0 1-11.312-27.312L985.57296 944l-52.688-52.688a16 16 0 1 1 22.624-22.624l64 64a16 16 0 0 1 0 22.624l-64 64A15.952 15.952 0 0 1 944.19696 1024zM144.19696 96a15.952 15.952 0 0 1-11.312-4.688L80.19696 38.624 27.50896 91.312A16 16 0 1 1 4.88496 68.688l64-64a16 16 0 0 1 22.624 0l64 64A16 16 0 0 1 144.19696 96zM80.18096 960a16 16 0 0 1-14.304-23.152l192-384a16 16 0 0 1 26.256-3.504l50.912 57.072 141.12-258.096a16.016 16.016 0 0 1 26.768-2l58.4 76.752 163.072-177.888a16 16 0 0 1 23.584 21.632l-176 192a15.968 15.968 0 0 1-24.528-1.12l-55.056-72.368-140.16 256.352a16 16 0 0 1-25.984 2.976l-50.304-56.4-181.44 362.896a16 16 0 0 1-14.336 8.848z" fill="#ffffff" p-id="9486"></path><path d="M80.19696 960a16.016 16.016 0 0 1-11.728-26.88l208-224a15.84 15.84 0 0 1 11.888-5.12 15.968 15.968 0 0 1 11.776 5.344l50.912 57.072 141.12-258.096a16 16 0 0 1 25.664-3.312l89.76 95.04 356.432-418.416a16 16 0 1 1 24.352 20.736l-368 432a16 16 0 0 1-11.776 5.632c-4.384 0.384-8.912-1.712-12.032-5.008l-86.88-92-141.44 258.688a16 16 0 0 1-25.984 2.976l-54.304-60.88L91.92496 954.88A15.984 15.984 0 0 1 80.19696 960z" fill="#ffffff" p-id="9487"></path><path d="M976.19696 304a16 16 0 0 1-16-16v-80h-80a16 16 0 0 1 0-32h96a16 16 0 0 1 16 16v96a16 16 0 0 1-16 16zM736.19696 368a16 16 0 0 1-16-16v-80h-80a16 16 0 0 1 0-32h96a16 16 0 0 1 16 16v96a16 16 0 0 1-16 16zM80.19696 960a16 16 0 0 1-4.08-31.472l395.584-104.16 108.864-115.36a15.968 15.968 0 0 1 21.328-1.728l137.68 105.008 78.384-335.92a16 16 0 0 1 26.944-7.632l142.656 144a16 16 0 1 1-22.72 22.528l-122.304-123.44-77.424 331.808a16 16 0 0 1-25.28 9.088l-145.888-111.264-102.112 108.192a15.968 15.968 0 0 1-7.552 4.48l-400 105.344A15.728 15.728 0 0 1 80.19696 960z" fill="#ffffff" p-id="9488"></path><path d="M976.19696 640h-96a16 16 0 0 1 0-32h80v-80a16 16 0 0 1 32 0v96a16 16 0 0 1-16 16zM144.19696 528c-4.32 0-8.32-1.76-11.36-4.64-2.88-3.04-4.64-7.04-4.64-11.36 0-4.16 1.76-8.32 4.64-11.36 5.92-5.92 16.64-5.92 22.72 0 2.88 3.04 4.64 7.2 4.64 11.36 0 4.16-1.76 8.32-4.64 11.36-3.04 2.88-7.2 4.64-11.36 4.64zM208.19696 528c-4.16 0-8.32-1.76-11.36-4.64-2.88-3.04-4.64-7.04-4.64-11.36 0-4.16 1.76-8.32 4.64-11.36 5.92-5.92 16.64-5.92 22.72 0 2.88 3.04 4.64 7.2 4.64 11.36 0 4.16-1.76 8.32-4.64 11.36-3.04 2.88-7.2 4.64-11.36 4.64zM144.19696 592c-4.16 0-8.32-1.76-11.36-4.64-2.88-3.04-4.64-7.2-4.64-11.36 0-4.16 1.76-8.32 4.64-11.36 5.92-5.92 16.64-5.92 22.72 0 2.88 3.04 4.64 7.2 4.64 11.36 0 4.16-1.76 8.32-4.64 11.36-3.04 2.88-7.2 4.64-11.36 4.64zM144.19696 464c-4.32 0-8.32-1.76-11.36-4.64-2.88-3.04-4.64-7.04-4.64-11.36s1.76-8.32 4.64-11.36c5.92-5.92 16.64-5.92 22.72 0 2.88 3.04 4.64 7.2 4.64 11.36 0 4.16-1.76 8.32-4.64 11.36-3.04 2.88-7.2 4.64-11.36 4.64zM208.19696 464c-4.16 0-8.32-1.76-11.36-4.64-2.88-3.04-4.64-7.2-4.64-11.36 0-4.32 1.76-8.32 4.64-11.36 5.92-5.92 16.64-5.92 22.72 0 2.88 3.04 4.64 7.2 4.64 11.36 0 4.16-1.76 8.32-4.64 11.36-3.04 2.88-7.2 4.64-11.36 4.64zM144.19696 400c-4.16 0-8.32-1.76-11.36-4.64-2.88-3.04-4.64-7.04-4.64-11.36s1.76-8.32 4.64-11.36c5.92-5.92 16.64-5.92 22.72 0 2.88 3.04 4.64 7.2 4.64 11.36 0 4.16-1.76 8.32-4.64 11.36-3.04 2.88-7.2 4.64-11.36 4.64zM208.19696 400c-4.16 0-8.32-1.76-11.36-4.64-2.88-3.04-4.64-7.2-4.64-11.36 0-4.32 1.76-8.32 4.64-11.36 5.92-5.92 16.64-5.92 22.72 0 2.88 3.04 4.64 7.2 4.64 11.36 0 4.16-1.76 8.32-4.64 11.36-3.04 2.88-7.2 4.64-11.36 4.64zM144.19696 336c-4.16 0-8.32-1.76-11.36-4.64-2.88-3.04-4.64-7.2-4.64-11.36 0-4.16 1.76-8.32 4.64-11.36 5.92-5.92 16.64-5.92 22.72 0 2.88 3.04 4.64 7.2 4.64 11.36 0 4.16-1.76 8.32-4.64 11.36-3.04 2.88-7.2 4.64-11.36 4.64zM208.19696 336c-4.32 0-8.32-1.76-11.36-4.64-2.88-3.04-4.64-7.04-4.64-11.36 0-4.16 1.76-8.32 4.64-11.36 5.92-5.92 16.64-5.92 22.72 0 2.88 3.04 4.64 7.2 4.64 11.36 0 4.16-1.76 8.32-4.64 11.36-3.04 2.88-7.2 4.64-11.36 4.64zM144.19696 272c-4.16 0-8.32-1.76-11.36-4.64-2.88-3.04-4.64-7.2-4.64-11.36 0-4.16 1.76-8.32 4.64-11.36 5.92-5.92 16.64-5.92 22.72 0 2.88 3.04 4.64 7.2 4.64 11.36 0 4.16-1.76 8.32-4.64 11.36-3.04 2.88-7.2 4.64-11.36 4.64zM208.19696 272c-4.16 0-8.32-1.76-11.36-4.64-2.88-3.04-4.64-7.04-4.64-11.36s1.76-8.32 4.64-11.36c5.92-5.76 16.64-5.92 22.72 0 2.88 3.04 4.64 7.2 4.64 11.36 0 4.16-1.76 8.32-4.64 11.36-3.04 2.88-7.2 4.64-11.36 4.64zM144.19696 208c-4.32 0-8.32-1.76-11.36-4.64-2.88-3.04-4.64-7.04-4.64-11.36 0-4.16 1.76-8.32 4.64-11.36 5.92-5.92 16.64-5.92 22.72 0 2.88 3.04 4.64 7.2 4.64 11.36 0 4.16-1.76 8.32-4.64 11.36-3.04 2.88-7.2 4.64-11.36 4.64zM208.19696 208c-4.16 0-8.32-1.76-11.36-4.64-2.88-3.04-4.64-7.2-4.64-11.36 0-4.32 1.76-8.32 4.64-11.36 5.92-5.92 16.64-5.92 22.72 0 2.88 3.04 4.64 7.2 4.64 11.36 0 4.16-1.76 8.32-4.64 11.36-3.04 2.88-7.2 4.64-11.36 4.64zM272.19696 464c-4.32 0-8.32-1.76-11.36-4.64-2.88-3.04-4.64-7.2-4.64-11.36 0-4.16 1.76-8.32 4.64-11.36 6.08-5.92 16.64-5.92 22.72 0 2.88 3.04 4.64 7.2 4.64 11.36 0 4.16-1.76 8.32-4.64 11.36-3.04 2.88-7.2 4.64-11.36 4.64zM272.19696 400c-4.16 0-8.32-1.76-11.36-4.64-2.88-3.04-4.64-7.2-4.64-11.36 0-4.16 1.76-8.32 4.64-11.36 5.92-5.92 16.64-5.92 22.72 0 2.88 3.04 4.64 7.2 4.64 11.36 0 4.16-1.76 8.32-4.64 11.36-3.04 2.88-7.2 4.64-11.36 4.64zM272.19696 336c-4.16 0-8.32-1.76-11.36-4.64-2.88-3.04-4.64-7.2-4.64-11.36 0-4.16 1.76-8.32 4.64-11.36 5.92-5.92 16.64-5.92 22.72 0 2.88 3.04 4.64 7.2 4.64 11.36 0 4.16-1.76 8.32-4.64 11.36-3.04 2.88-7.2 4.64-11.36 4.64zM272.19696 272c-4.32 0-8.32-1.76-11.36-4.64-2.88-3.04-4.64-7.2-4.64-11.36 0-4.16 1.76-8.32 4.64-11.36 5.92-5.92 16.64-5.92 22.72 0 2.88 3.04 4.64 7.2 4.64 11.36 0 4.16-1.76 8.32-4.64 11.36-3.04 2.88-7.2 4.64-11.36 4.64zM272.19696 208c-4.16 0-8.32-1.76-11.36-4.64-2.88-3.04-4.64-7.2-4.64-11.36 0-4.16 1.76-8.32 4.64-11.36 5.92-5.92 16.64-5.92 22.72 0 2.88 3.04 4.64 7.2 4.64 11.36 0 4.16-1.76 8.32-4.64 11.36-3.04 2.88-7.2 4.64-11.36 4.64zM336.19696 464c-4.16 0-8.32-1.76-11.36-4.64-2.88-3.04-4.64-7.2-4.64-11.36 0-4.16 1.76-8.32 4.64-11.36 6.08-5.92 16.64-5.92 22.72 0 2.88 3.04 4.64 7.2 4.64 11.36 0 4.16-1.76 8.32-4.64 11.36-3.04 2.88-7.2 4.64-11.36 4.64zM336.19696 400c-4.16 0-8.32-1.76-11.36-4.64-2.88-3.04-4.64-7.2-4.64-11.36 0-4.16 1.76-8.32 4.64-11.36 6.08-5.92 16.64-5.92 22.72 0 2.88 3.04 4.64 7.2 4.64 11.36 0 4.16-1.76 8.32-4.64 11.36-3.04 2.88-7.2 4.64-11.36 4.64zM336.19696 336c-4.16 0-8.32-1.76-11.36-4.64-2.88-3.04-4.64-7.2-4.64-11.36 0-4.16 1.76-8.32 4.64-11.36 6.08-5.92 16.64-5.92 22.72 0 2.88 3.04 4.64 7.2 4.64 11.36 0 4.16-1.76 8.32-4.64 11.36-3.04 2.88-7.2 4.64-11.36 4.64zM336.19696 272c-4.16 0-8.32-1.76-11.36-4.64-2.88-3.04-4.64-7.2-4.64-11.36 0-4.16 1.76-8.32 4.64-11.36 6.08-5.92 16.64-5.92 22.72 0 2.88 3.04 4.64 7.2 4.64 11.36 0 4.16-1.76 8.32-4.64 11.36-3.04 2.88-7.2 4.64-11.36 4.64zM336.19696 208c-4.16 0-8.32-1.76-11.36-4.64-2.88-3.04-4.64-7.2-4.64-11.36 0-4.16 1.76-8.32 4.64-11.36 5.92-5.92 16.64-5.92 22.72 0 2.88 3.04 4.64 7.2 4.64 11.36 0 4.16-1.76 8.32-4.64 11.36-3.04 2.88-7.2 4.64-11.36 4.64zM400.19696 400c-4.16 0-8.32-1.76-11.36-4.64-2.88-3.04-4.64-7.2-4.64-11.36 0-4.16 1.76-8.32 4.64-11.36 5.92-5.92 16.8-5.92 22.72 0 2.88 3.04 4.64 7.2 4.64 11.36 0 4.16-1.76 8.32-4.64 11.36-3.04 2.88-7.2 4.64-11.36 4.64zM400.19696 336c-4.32 0-8.32-1.76-11.36-4.64-2.88-3.04-4.64-7.2-4.64-11.36 0-4.16 1.76-8.32 4.64-11.36 5.92-5.92 16.64-5.92 22.72 0 2.88 3.04 4.64 7.2 4.64 11.36 0 4.16-1.76 8.32-4.64 11.36-3.04 2.88-7.04 4.64-11.36 4.64zM400.19696 272c-4.16 0-8.32-1.76-11.36-4.64-2.88-3.04-4.64-7.2-4.64-11.36 0-4.16 1.76-8.32 4.64-11.36 5.92-5.92 16.8-5.92 22.72 0 2.88 3.04 4.64 7.2 4.64 11.36 0 4.16-1.76 8.32-4.64 11.36-3.04 2.88-7.2 4.64-11.36 4.64zM400.19696 208c-4.16 0-8.32-1.76-11.36-4.64-2.88-3.04-4.64-7.2-4.64-11.36 0-4.16 1.76-8.32 4.64-11.36 5.92-5.92 16.64-5.92 22.72 0 2.88 3.04 4.64 7.2 4.64 11.36 0 4.16-1.76 8.32-4.64 11.36-3.04 2.88-7.2 4.64-11.36 4.64zM464.19696 272c-4.16 0-8.32-1.76-11.36-4.64-2.88-3.04-4.64-7.2-4.64-11.36 0-4.16 1.76-8.32 4.64-11.36 6.08-5.92 16.8-5.92 22.72 0 2.88 3.04 4.64 7.2 4.64 11.36 0 4.16-1.76 8.32-4.64 11.36-3.04 2.88-7.2 4.64-11.36 4.64zM464.19696 208c-4.16 0-8.32-1.76-11.36-4.64-2.88-3.04-4.64-7.2-4.64-11.36 0-4.16 1.76-8.32 4.64-11.36 6.08-5.92 16.8-5.92 22.72 0 2.88 3.04 4.64 7.2 4.64 11.36 0 4.16-1.76 8.32-4.64 11.36-3.04 2.88-7.2 4.64-11.36 4.64zM528.19696 272c-4.16 0-8.32-1.76-11.36-4.64-2.88-3.04-4.64-7.2-4.64-11.36 0-4.16 1.76-8.32 4.64-11.36 6.08-5.92 16.8-5.92 22.72 0 2.88 3.04 4.64 7.2 4.64 11.36 0 4.16-1.76 8.32-4.64 11.36-3.04 2.88-7.2 4.64-11.36 4.64zM528.19696 208c-4.16 0-8.32-1.76-11.36-4.64-2.88-3.04-4.64-7.2-4.64-11.36 0-4.16 1.76-8.32 4.64-11.36 5.92-5.92 16.8-5.92 22.72 0 2.88 3.04 4.64 7.2 4.64 11.36 0 4.16-1.76 8.32-4.64 11.36-3.04 2.88-7.04 4.64-11.36 4.64z" fill="#ffffff" p-id="9489"></path></svg>