<?xml version="1.0" standalone="no"?><!DOCTYPE svg PUBLIC "-//W3C//DTD SVG 1.1//EN" "http://www.w3.org/Graphics/SVG/1.1/DTD/svg11.dtd"><svg t="1732785352345" class="icon" viewBox="0 0 1024 1024" version="1.1" xmlns="http://www.w3.org/2000/svg" p-id="45043" xmlns:xlink="http://www.w3.org/1999/xlink" width="200" height="200"><path d="M618.759 915.993h-233.708l29.709-144.506h174.318z" p-id="45044"></path><path d="M681.313 933.38h-358.865v-9.937c0-1.983 0.753-3.888 2.254-5.327 1.468-1.53 3.324-2.162 5.327-2.162h343.833c1.931 0 3.888 0.706 5.327 2.162 1.468 1.437 2.162 3.324 2.162 5.327v9.937z" p-id="45045"></path><path d="M928.501 780.917h-853.296c-21.633 0-39.269-17.641-39.269-39.357v-550.793c0-21.703 17.641-39.357 39.269-39.357h853.296c21.703 0 39.357 17.697 39.357 39.357v550.793c0 21.74-17.697 39.357-39.357 39.357zM75.163 186.402c-2.257 0-4.294 1.981-4.294 4.353v550.793c0 2.403 1.981 4.353 4.294 4.353h853.296c2.403 0 4.353-1.983 4.353-4.353v-550.793c0-2.403-1.983-4.353-4.353-4.353h-853.296z" p-id="45046"></path><path d="M132.264 266.614h223.059v66.873h-223.059v-66.873z" p-id="45047"></path><path d="M390.367 266.614h486.463v66.873h-486.463v-66.873z" p-id="45048"></path><path d="M126.959 643.886h749.868v22.154h-749.868v-22.154z" p-id="45049"></path><path d="M126.959 490.465h223.025v127.287h-223.025v-127.287z" p-id="45050"></path><path d="M390.367 490.465h223.040v127.287h-223.040v-127.287z" p-id="45051"></path><path d="M653.705 490.465h223.11v127.287h-223.11v-127.287z" p-id="45052"></path><path d="M126.959 359.594h749.868v104.7h-749.868v-104.7z" p-id="45053"></path></svg>