<?xml version="1.0" standalone="no"?><!DOCTYPE svg PUBLIC "-//W3C//DTD SVG 1.1//EN" "http://www.w3.org/Graphics/SVG/1.1/DTD/svg11.dtd"><svg t="1712388142034" class="icon" viewBox="0 0 1024 1024" version="1.1" xmlns="http://www.w3.org/2000/svg" p-id="6414" xmlns:xlink="http://www.w3.org/1999/xlink" width="200" height="200"><path d="M931.7 440.1H92.3c-29.6 0-42.1-37.7-18.5-55.4L476 83.2c21.3-16 50.7-16 72 0l402.2 301.5c23.7 17.8 11.1 55.4-18.5 55.4z" fill="#e6e6e6" p-id="6415"></path><path d="M127.9 408.7L182 899.4c3.4 30.4 29 53.4 59.6 53.4h540.7c30.6 0 56.3-23 59.6-53.4L896 408.7H127.9z m545.6 374.4c0 22.1-17.9 40-40 40H392.3c-22.1 0-40-17.9-40-40V662.5c0-88.7 71.9-160.6 160.6-160.6 88.7 0 160.6 71.9 160.6 160.6v120.6z" fill="#e6e6e6" p-id="6416"></path><path d="M511.9 568.6c-53.3 0-96.4 43.2-96.4 96.4v76.4c0 11 9 20 20 20h152.8c11 0 20-9 20-20V665c0-53.2-43.1-96.4-96.4-96.4z" fill="#e6e6e6" opacity=".5" p-id="6417"></path></svg>