<?xml version="1.0" standalone="no"?><!DOCTYPE svg PUBLIC "-//W3C//DTD SVG 1.1//EN" "http://www.w3.org/Graphics/SVG/1.1/DTD/svg11.dtd"><svg t="1732784958502" class="icon" viewBox="0 0 1024 1024" version="1.1" xmlns="http://www.w3.org/2000/svg" p-id="19294" xmlns:xlink="http://www.w3.org/1999/xlink" width="200" height="200"><path d="M534.78912 240.98816a29.696 29.696 0 0 1 2.70336 1.0752l240.11776 109.11744c9.58976 4.352 15.55968 13.98784 15.08864 24.3712l-12.22656 269.07648c-0.49152 10.86464-7.89504 20.24448-18.47808 23.40352l-243.44576 71.88992a26.4704 26.4704 0 0 1-14.93504 0L290.4064 677.0432a25.80992 25.80992 0 0 1-17.53088-17.4336 25.2928 25.2928 0 0 1 5.40672-23.94112l151.22944-171.02336a24.1152 24.1152 0 0 0 5.04832-8.704l67.29216-198.72256c4.57216-13.39904 19.29216-20.65408 32.94208-16.2304z m310.784 461.04576l-334.5152 190.06464-334.52032-190.06464V321.9968l334.52032-190.06976L845.568 321.9968v380.03712z m39.02976-417.00352l-360.53504-204.81536a26.50112 26.50112 0 0 0-26.01984 0L137.50784 285.0304A25.47712 25.47712 0 0 0 124.49792 307.2v409.6256c0 9.16992 4.9408 17.61792 13.0048 22.17472l360.54528 204.81536a26.71104 26.71104 0 0 0 26.01984 0l360.53504-204.81536a25.52832 25.52832 0 0 0 13.01504-22.17472V307.2a25.52832 25.52832 0 0 0-13.01504-22.1696z" p-id="19295" fill="#cdcdcd"></path></svg>