<?xml version="1.0" standalone="no"?><!DOCTYPE svg PUBLIC "-//W3C//DTD SVG 1.1//EN" "http://www.w3.org/Graphics/SVG/1.1/DTD/svg11.dtd"><svg t="1717986139732" class="icon" viewBox="0 0 1024 1024" version="1.1" xmlns="http://www.w3.org/2000/svg" p-id="11778" xmlns:xlink="http://www.w3.org/1999/xlink" width="16" height="16"><path d="M480 118.613333a394.666667 394.666667 0 1 0 425.386667 425.386667H512a32 32 0 0 1-32-32V118.613333zM53.333333 512C53.333333 258.688 258.688 53.333333 512 53.333333a32 32 0 0 1 32 32v394.666667H938.666667a32 32 0 0 1 32 32c0 253.312-205.354667 458.666667-458.666667 458.666667S53.333333 765.312 53.333333 512z" p-id="11779"></path><path d="M621.056 79.061333a32 32 0 0 1 28.544-4.693333 459.690667 459.690667 0 0 1 300.074667 300.032 32 32 0 0 1-30.549334 41.6H640a32 32 0 0 1-32-32V104.874667a32 32 0 0 1 13.056-25.813334z m50.944 72.064V352h200.917333a396.245333 396.245333 0 0 0-200.917333-200.874667z" p-id="11780"></path></svg>