<?xml version="1.0" standalone="no"?><!DOCTYPE svg PUBLIC "-//W3C//DTD SVG 1.1//EN" "http://www.w3.org/Graphics/SVG/1.1/DTD/svg11.dtd"><svg t="1732784736730" class="icon" viewBox="0 0 1024 1024" version="1.1" xmlns="http://www.w3.org/2000/svg" p-id="9748" xmlns:xlink="http://www.w3.org/1999/xlink" width="200" height="200"><path d="M853.333333 85.333333c56.8832 0 85.333333 28.450133 85.333334 85.333334v85.333333H85.333333v-85.333333c0-56.8832 28.450133-85.333333 85.333334-85.333334h682.666666z m-512 85.333334c0-11.946667-4.266667-22.186667-12.8-30.72-7.970133-7.970133-17.92-11.946667-29.866666-11.946667s-22.186667 3.976533-30.72 11.946667c-7.970133 8.533333-11.946667 18.773333-11.946667 30.72s3.976533 21.896533 11.946667 29.866666c8.533333 8.533333 18.773333 12.8 30.72 12.8s21.896533-4.266667 29.866666-12.8c8.533333-7.970133 12.8-17.92 12.8-29.866666z m115.2 29.866666c8.533333-7.970133 12.8-17.92 12.8-29.866666s-4.266667-22.186667-12.8-30.72c-7.970133-7.970133-17.92-11.946667-29.866666-11.946667s-22.186667 3.976533-30.72 11.946667c-7.970133 8.533333-11.946667 18.773333-11.946667 30.72s3.976533 21.896533 11.946667 29.866666c8.533333 8.533333 18.773333 12.8 30.72 12.8s21.896533-4.266667 29.866666-12.8z m86.186667 597.333334c-7.970133 8.533333-17.92 12.8-29.866667 12.8s-22.186667-4.266667-30.72-12.8c-7.970133-7.970133-11.946667-17.92-11.946666-29.866667s3.976533-22.186667 11.946666-30.72c8.533333-7.9872 18.773333-11.946667 30.72-11.946667s21.896533 3.959467 29.866667 11.946667c8.533333 8.533333 12.8 18.773333 12.8 30.72s-4.266667 21.896533-12.8 29.866667zM170.666667 128c-11.946667 0-22.186667 3.976533-30.72 11.946667-7.970133 8.533333-11.946667 18.773333-11.946667 30.72s3.976533 21.896533 11.946667 29.866666c8.533333 8.533333 18.773333 12.8 30.72 12.8s21.896533-4.266667 29.866666-12.8c8.533333-7.970133 12.8-17.92 12.8-29.866666s-4.266667-22.186667-12.8-30.72c-7.970133-7.970133-17.92-11.946667-29.866666-11.946667z" p-id="9749" fill="#cdcdcd"></path><path d="M853.333333 955.733333H170.666667c-66.030933 0-102.4-36.369067-102.4-102.4V170.666667c0-66.030933 36.369067-102.4 102.4-102.4h682.666666c66.030933 0 102.4 36.369067 102.4 102.4v682.666666c0 66.030933-36.369067 102.4-102.4 102.4zM102.4 273.066667v580.266666c0 47.223467 21.0432 68.266667 68.266667 68.266667h682.666666c47.223467 0 68.266667-21.0432 68.266667-68.266667V273.066667H102.4z m0-34.133334h819.2v-68.266666c0-47.223467-21.0432-68.266667-68.266667-68.266667H170.666667c-47.223467 0-68.266667 21.0432-68.266667 68.266667v68.266666z" p-id="9750" fill="#cdcdcd"></path><path d="M512.853333 663.893333a34.133333 34.133333 0 0 1-34.133333-34.133333V392.533333a34.133333 34.133333 0 0 1 68.266667 0v237.226667a34.133333 34.133333 0 0 1-34.133334 34.133333z" p-id="9751" fill="#cdcdcd"></path></svg>