<?xml version="1.0" standalone="no"?><!DOCTYPE svg PUBLIC "-//W3C//DTD SVG 1.1//EN" "http://www.w3.org/Graphics/SVG/1.1/DTD/svg11.dtd"><svg t="1712500453755" class="icon" viewBox="0 0 1024 1024" version="1.1" xmlns="http://www.w3.org/2000/svg" p-id="66732" xmlns:xlink="http://www.w3.org/1999/xlink" width="200" height="200"><path d="M478.208 827.904H162.816c-16.896 0-30.208-13.824-30.208-30.208V326.144c4.096 2.048 8.192 3.072 13.312 3.072h580.096c4.608 0 9.216-1.536 13.312-3.072v155.648c0 16.896 13.312 30.208 30.208 30.208s30.208-13.312 30.208-30.208V165.888c0-50.176-40.96-91.136-91.136-91.136H162.816c-50.176 0-91.136 40.96-91.136 91.136v631.808c0 50.176 40.96 91.136 91.136 91.136h315.392c16.896 0 30.208-13.312 30.208-30.208s-13.312-30.72-30.208-30.72zM162.816 135.68h545.792c16.896 0 30.208 13.824 30.208 30.208v106.496c-4.096-2.048-8.192-3.072-13.312-3.072H145.92c-4.608 0-9.216 1.536-13.312 3.072V165.888c0-16.896 13.824-30.208 30.208-30.208z" p-id="66733" fill="#ffffff"></path><path d="M281.088 451.584l-42.496 119.296c-5.632 15.872 2.56 33.28 18.432 38.912 3.584 1.024 6.656 1.536 10.24 1.536 12.288 0 24.064-7.68 28.672-19.968l42.496-119.296c5.632-15.872-2.56-33.28-18.432-38.912s-33.28 2.56-38.912 18.432zM565.248 903.168c-15.36 0-28.672-7.68-33.792-20.992-7.68-13.312-7.68-28.672 0-39.424l172.544-300.032c7.68-12.8 20.992-20.992 33.792-20.992 15.36 0 28.672 7.68 33.792 20.992l174.592 300.032c7.68 13.312 7.68 28.672 0 39.424-7.68 13.312-20.992 20.992-33.792 20.992h-347.136z m175.104-309.76c-4.096 0-8.192 2.048-10.24 6.144l-135.68 236.032c-2.048 4.096-2.048 8.192 0 10.24 2.048 4.096 6.144 6.144 10.24 6.144h273.408c4.096 0 8.192-2.048 10.24-6.144s2.048-8.192 0-10.24l-139.776-236.032c-2.048-4.096-4.096-6.144-8.192-6.144z m-3.072 239.104c-10.752 0-18.944-8.192-18.944-18.944s8.192-18.944 18.944-18.944 18.944 8.192 18.944 18.944c0 10.24-8.192 18.944-18.944 18.944z m0-52.736c-6.656 0-10.752-4.096-12.288-12.288l-6.656-96.768c0-10.752 8.192-18.944 18.944-18.944s18.944 8.192 18.944 18.944l-6.656 96.768c-1.536 8.192-8.192 12.288-12.288 12.288z" p-id="66734" fill="#ffffff"></path></svg>