<?xml version="1.0" standalone="no"?><!DOCTYPE svg PUBLIC "-//W3C//DTD SVG 1.1//EN" "http://www.w3.org/Graphics/SVG/1.1/DTD/svg11.dtd"><svg t="1732500089607" class="icon" viewBox="0 0 1024 1024" version="1.1" xmlns="http://www.w3.org/2000/svg" p-id="5244" xmlns:xlink="http://www.w3.org/1999/xlink" width="200" height="200"><path d="M768.014222 328.391111H570.695111c12.16-20.280889 19.256889-41.770667 19.697778-62.435555 0.611556-28.273778-10.609778-53.560889-32.384-73.173334-47.672889-42.922667-53.390222-63.146667-27.804445-98.403555a28.472889 28.472889 0 0 0-6.314666-39.736889 28.487111 28.487111 0 0 0-39.736889 6.314666c-62.250667 85.816889 3.982222 145.436444 35.811555 174.094223 9.528889 8.561778 13.838222 17.991111 13.582223 29.681777-0.440889 19.896889-14.592 44.444444-36.266667 63.658667H256.014222c-133.319111 0-241.777778 110.563556-241.777778 246.172445 0 103.224889 33.976889 398.193778 184.888889 398.193777 83.072 0 200.177778-89.685333 247.495111-189.240889h130.773334c47.587556 99.555556 164.750222 191.274667 247.495111 191.274667 150.912 0 184.888889-297.372444 184.903111-401.408 0-134.968889-108.458667-244.992-241.777778-244.992zM824.888889 918.115556c-58.965333 0-167.736889-83.968-202.410667-172.885334-4.266667-10.922667-14.776889-18.616889-26.496-18.616889H428.032c-11.733333 0-22.243556 7.566222-26.510222 18.503111-34.261333 87.850667-143.075556 170.951111-202.410667 170.951112-82.417778 0-128-201.884444-128-341.276445 0-102.456889 84.664889-189.511111 184.888889-189.511111h512c101.944889 0 184.888889 84.636444 184.888889 188.188444 0 123.562667-42.780444 344.647111-128 344.647112z" fill="" p-id="5245"></path><path d="M490.666667 669.724444h-14.222223a14.222222 14.222222 0 1 0 0 28.444445h14.222223a14.222222 14.222222 0 1 0 0-28.444445zM433.777778 669.724444h-52.423111c-5.873778 0-11.150222 4.024889-13.269334 9.500445-26.510222 68.536889-126.776889 170.922667-167.608889 170.922667-7.864889 0-14.222222 6.229333-14.222222 14.08 0 7.864889 6.357333 13.994667 14.222222 13.994666 58.666667 0 158.378667-108.942222 190.307556-180.053333H433.777778a14.222222 14.222222 0 1 0 0-28.444445zM240.085333 684.928a14.222222 14.222222 0 1 0 28.444445 0V598.613333H348.444444a14.222222 14.222222 0 1 0 0-28.444444h-79.914666v-84.352a14.222222 14.222222 0 1 0-28.444445 0v84.352H149.333333a14.222222 14.222222 0 1 0 0 28.444444h90.752v86.314667zM777.827556 586.666667c13.027556 0 25.258667-5.077333 34.488888-14.279111 9.201778-9.187556 14.279111-21.447111 14.279112-34.474667s-5.063111-25.258667-14.293334-34.474667c-18.389333-18.417778-50.531556-18.417778-68.920889 0-9.216 9.216-14.279111 21.447111-14.279111 34.474667s5.063111 25.272889 14.250667 34.446222a48.398222 48.398222 0 0 0 34.474667 14.307556z m-14.321778-63.104a20.053333 20.053333 0 0 1 14.336-5.930667c5.432889 0 10.524444 2.090667 14.364444 5.930667 3.854222 3.868444 5.959111 8.945778 5.959111 14.364444 0 5.432889-2.090667 10.524444-5.944889 14.378667-7.694222 7.694222-21.034667 7.694222-28.714666 0a20.152889 20.152889 0 0 1-5.944889-14.378667c0-5.432889 2.090667-10.524444 5.944889-14.364444zM890.311111 581.447111c-18.417778-18.417778-50.56-18.417778-68.949333 0-9.216 9.187556-14.279111 21.418667-14.279111 34.446222s5.077333 25.272889 14.264889 34.446223a48.384 48.384 0 0 0 34.488888 14.307555c13.013333 0 25.244444-5.048889 34.474667-14.279111a48.782222 48.782222 0 0 0 0-68.920889z m-20.110222 48.796445c-7.694222 7.665778-21.034667 7.665778-28.728889 0-3.84-3.84-5.944889-8.945778-5.944889-14.364445s2.104889-10.496 5.944889-14.336 8.931556-5.944889 14.350222-5.944889a20.337778 20.337778 0 0 1 14.378667 34.645334zM748.643556 615.893333a48.355556 48.355556 0 0 0-14.307556-34.446222c-18.389333-18.417778-50.531556-18.417778-68.920889 0a48.298667 48.298667 0 0 0-14.279111 34.446222 48.355556 48.355556 0 0 0 14.264889 34.474667c9.201778 9.230222 21.447111 14.279111 34.474667 14.279111s25.258667-5.048889 34.474666-14.279111a48.341333 48.341333 0 0 0 14.293334-34.474667z m-34.389334 14.350223c-7.694222 7.665778-21.034667 7.694222-28.743111 0-3.854222-3.84-5.930667-8.945778-5.930667-14.364445s2.104889-10.496 5.944889-14.336 8.931556-5.944889 14.350223-5.944889a20.266667 20.266667 0 0 1 20.323555 20.280889c0 5.418667-2.119111 10.538667-5.944889 14.364445zM743.395556 659.413333c-9.216 9.187556-14.279111 21.418667-14.279112 34.446223s5.063111 25.272889 14.279112 34.474666c9.187556 9.216 21.418667 14.279111 34.446222 14.279111s25.272889-5.048889 34.488889-14.279111a48.241778 48.241778 0 0 0 14.279111-34.474666c0-13.027556-5.091556-25.272889-14.293334-34.446223-18.403556-18.417778-50.531556-18.417778-68.920888 0z m48.810666 48.824889c-7.665778 7.665778-21.034667 7.694222-28.714666 0a20.096 20.096 0 0 1-5.944889-14.364444c0-5.432889 2.090667-10.496 5.944889-14.350222 3.84-3.84 8.917333-5.944889 14.336-5.944889 5.432889 0 10.524444 2.104889 14.378666 5.944889 3.854222 3.854222 5.944889 8.917333 5.944889 14.350222 0 5.418667-2.090667 10.510222-5.944889 14.364444z" fill="" p-id="5246"></path></svg>