<?xml version="1.0" standalone="no"?><!DOCTYPE svg PUBLIC "-//W3C//DTD SVG 1.1//EN" "http://www.w3.org/Graphics/SVG/1.1/DTD/svg11.dtd"><svg t="1713709624991" class="icon" viewBox="0 0 1024 1024" version="1.1" xmlns="http://www.w3.org/2000/svg" p-id="29249" xmlns:xlink="http://www.w3.org/1999/xlink" width="18" height="18"><path d="M864 128c17.673 0 32 14.327 32 32v162c0 17.673-14.327 32-32 32H160c-17.673 0-32-14.327-32-32V160c0-17.673 14.327-32 32-32h704z m-48 72H208a8 8 0 0 0-8 8v66a8 8 0 0 0 8 8h608a8 8 0 0 0 8-8v-66a8 8 0 0 0-8-8z m48 199c17.673 0 32 14.327 32 32v162c0 17.673-14.327 32-32 32H160c-17.673 0-32-14.327-32-32V431c0-17.673 14.327-32 32-32h704z m-48 72H208a8 8 0 0 0-8 8v66a8 8 0 0 0 8 8h608a8 8 0 0 0 8-8v-66a8 8 0 0 0-8-8zM512 678v56a8 8 0 0 1-8 8H208a8 8 0 0 0-8 8v66a8 8 0 0 0 8 8h296a8 8 0 0 1 8 8v56a8 8 0 0 1-8 8H160c-17.673 0-32-14.327-32-32V702c0-17.673 14.327-32 32-32h344a8 8 0 0 1 8 8z m296.856-3.717a8 8 0 0 0-1.63 4.839l0.001 67.877-248 0.001a8 8 0 0 0-8 8v56a8 8 0 0 0 8 8h248v67.878a8 8 0 0 0 12.838 6.371l136.773-103.878a8 8 0 0 0 0-12.742L820.065 672.751a8 8 0 0 0-11.21 1.532z" p-id="29250" fill="#ffffff"></path></svg>