<?xml version="1.0" standalone="no"?><!DOCTYPE svg PUBLIC "-//W3C//DTD SVG 1.1//EN" "http://www.w3.org/Graphics/SVG/1.1/DTD/svg11.dtd"><svg t="1732872590036" class="icon" viewBox="0 0 1024 1024" version="1.1" xmlns="http://www.w3.org/2000/svg" p-id="14292" xmlns:xlink="http://www.w3.org/1999/xlink" width="200" height="200"><path d="M815.55 371.56c-12.19-12.19-12.2-31.92 0.01-44.07l57.63-57.64c15.56-15.55 24.11-36.27 24.11-58.25s-8.55-42.7-24.11-58.25l-2.58-2.58c-32.09-32.16-84.44-32.11-116.55 0l-57.64 57.65c-12.18 12.19-31.91 12.21-44.05 0-12.2-12.14-12.2-31.93 0.01-44.06l57.63-57.64c56.43-56.37 148.22-56.44 204.65 0l2.58 2.58c27.36 27.37 42.37 63.7 42.37 102.37 0 38.68-15.07 75.01-42.37 102.37l-57.64 57.65c-6 5.93-13.99 9.01-22 9.01-7.97-0.01-15.95-3.11-22.05-9.14zM488.52 538.01l-2.58-2.58c-56.43-56.44-56.43-148.31 0-204.69l57.64-57.65c12.19-12.19 31.91-12.21 44.06 0 12.18 12.19 12.2 31.91-0.01 44.06l-57.58 57.59c-32.1 32.11-32.11 84.4 0 116.57l2.58 2.58c31.08 31.03 85.47 31.03 116.55 0l57.64-57.65c12.19-12.19 31.92-12.21 44.06 0.01 12.18 12.19 12.19 31.92-0.02 44.06l-57.63 57.64c-27.36 27.36-63.68 42.44-102.35 42.44-38.68 0-75-15.08-102.36-42.38z" fill="#dbdbdb" p-id="14293"></path><path d="M628.26 395.6c-12.18-12.19-12.2-31.92 0.01-44.07l102.59-102.61c12.19-12.19 31.92-12.21 44.06 0 12.18 12.19 12.2 31.91-0.01 44.06L672.4 395.58c-6.1 6.16-14.16 9.16-22.08 9.16-7.98-0.01-15.96-3.11-22.06-9.14z" fill="#dbdbdb" p-id="14294"></path><path d="M195.94 252.07c-38.83 0-70.31 31.48-70.31 70.31v505.63c0 38.83 31.48 70.32 70.31 70.32h505.63c38.83 0 70.31-31.48 70.31-70.32V575.2c0-17.02 13.8-30.81 30.82-30.81s30.81 13.79 30.81 30.81v252.81c0 72.87-59.07 131.94-131.94 131.94H195.94C123.07 959.96 64 900.88 64 828.01V322.39c0-72.87 59.07-131.94 131.94-131.94h252.82c17.02 0 30.81 13.79 30.81 30.81s-13.79 30.81-30.81 30.81H195.94z" fill="#dbdbdb" p-id="14295"></path></svg>