<?xml version="1.0" standalone="no"?><!DOCTYPE svg PUBLIC "-//W3C//DTD SVG 1.1//EN" "http://www.w3.org/Graphics/SVG/1.1/DTD/svg11.dtd"><svg t="1732785177747" class="icon" viewBox="0 0 1024 1024" version="1.1" xmlns="http://www.w3.org/2000/svg" p-id="30853" xmlns:xlink="http://www.w3.org/1999/xlink" width="200" height="200"><path d="M944.196267 341.137067H682.862933V79.8464A20.164267 20.164267 0 0 0 662.784 59.733333H79.854933A20.164267 20.164267 0 0 0 59.733333 79.854933V662.784a20.164267 20.164267 0 0 0 20.1216 20.078933h261.290667v261.333334A20.164267 20.164267 0 0 0 361.250133 964.266667h582.9376a20.164267 20.164267 0 0 0 20.0704-20.0704V361.258667a20.164267 20.164267 0 0 0-20.0704-20.1216z m-603.101867 20.1216v236.202666H145.186133v-452.266666h452.266667v195.899733H361.258667a20.164267 20.164267 0 0 0-20.1216 20.1216l-0.042667 0.042667z m256.315733 65.3312v170.862933H426.581333V426.589867h170.862934-0.042667z m281.403734 452.266666H426.581333V682.862933h236.202667a20.164267 20.164267 0 0 0 20.0704-20.078933V426.589867h195.9936v452.266666h-0.042667z" fill="#dbdbdb" p-id="30854"></path></svg>