<?xml version="1.0" standalone="no"?><!DOCTYPE svg PUBLIC "-//W3C//DTD SVG 1.1//EN" "http://www.w3.org/Graphics/SVG/1.1/DTD/svg11.dtd"><svg t="1713081392731" class="icon" viewBox="0 0 1077 1024" version="1.1" xmlns="http://www.w3.org/2000/svg" p-id="7031" width="21.03515625" height="20" xmlns:xlink="http://www.w3.org/1999/xlink"><path d="M652.23492197 701.15248547c8.67892226 0 15.67694718 7.0323285 15.67694719 15.71125076v67.54465804c0 29.50147598-23.90991727 53.48000103-53.27417642 53.48000104H239.38578111C210.02152197 837.88839531 186.11160469 813.87556605 186.11160469 784.40839427V239.59160573C186.11160469 210.09012974 210.02152197 186.11160469 239.38578111 186.11160469H614.56908432c29.36425979 0 53.27417642 24.01282926 53.27417641 53.48000104v58.93434356a15.71125076 15.71125076 0 1 1-31.31958951 0V239.62590931a22.02319469 22.02319469 0 0 0-21.9545869-22.02319468H239.38578111a22.02319469 22.02319469 0 0 0-21.95458627 22.02319468v544.81678917c0 12.14363083 9.87956386 22.02319469 21.95458626 22.02319469h375.25191165c12.07502242 0 21.9545869-9.87956386 21.95458625-22.02319469v-67.54465804c0-8.67892226 6.99802429-15.71125076 15.64264297-15.71125075z m212.82227456-197.90001614a15.77985917 15.77985917 0 0 1-1e-8 22.26332287l-124.18063102 124.59227963a15.57403519 15.57403519 0 0 1-22.12610667 0 15.77985917 15.77985917 0 0 1 0-22.2290193l102.63769272-103.01503714H446.99384135a15.71125076 15.71125076 0 0 1 0-31.4568057h363.96588157l-95.36523607-95.70827624a15.77985917 15.77985917 0 0 1 0-22.22901931 15.64264297 15.64264297 0 0 1 22.16041088 0l127.3022988 127.78255518z" p-id="7032"></path></svg>