<?xml version="1.0" standalone="no"?><!DOCTYPE svg PUBLIC "-//W3C//DTD SVG 1.1//EN" "http://www.w3.org/Graphics/SVG/1.1/DTD/svg11.dtd"><svg height="400" node-id="1" sillyvg="true" template-height="400" template-width="400" version="1.1" viewBox="0 0 400 400" width="400" xmlns="http://www.w3.org/2000/svg" xmlns:xlink="http://www.w3.org/1999/xlink"><defs node-id="50"><linearGradient gradientUnits="userSpaceOnUse" id="linear-gradient" node-id="9" spreadMethod="pad" x1="205.625" x2="205.625" y1="270.688" y2="381.906"><stop offset="0" stop-color="#deecff"></stop><stop offset="0.617" stop-color="#ffffff"></stop><stop offset="1" stop-color="#ffffff" stop-opacity="0"></stop></linearGradient><linearGradient gradientUnits="userSpaceOnUse" id="linear-gradient-2" node-id="13" spreadMethod="pad" x1="192.172" x2="75.828" y1="135.438" y2="19.094"><stop offset="0" stop-color="#7dbcf7"></stop><stop offset="1" stop-color="#e7f2fe"></stop></linearGradient><linearGradient gradientUnits="userSpaceOnUse" id="linear-gradient-3" node-id="16" spreadMethod="pad" x1="256.282" x2="117.28" y1="213.906" y2="64.844"><stop offset="0" stop-color="#7dbcf7"></stop><stop offset="0.424" stop-color="#aad3fa" stop-opacity="0"></stop><stop offset="1" stop-color="#e7f2fe"></stop></linearGradient></defs><g node-id="73"><path d="M 160.02 72.30 L 262.82 72.30 L 262.82 303.10 L 160.02 303.10 L 160.02 72.30 Z" fill="#ecf4ff" fill-opacity="0.5" fill-rule="evenodd" group-id="1" id="矩形_654" node-id="21" stroke="none" target-height="230.8" target-width="102.79999" target-x="160.022" target-y="72.3"></path><path d="M 172.82 89.90 L 182.42 89.90 L 182.42 99.50 L 172.82 99.50 L 172.82 89.90 Z M 189.22 89.90 L 198.82 89.90 L 198.82 99.50 L 189.22 99.50 L 189.22 89.90 Z M 206.82 89.90 L 216.42 89.90 L 216.42 99.50 L 206.82 99.50 L 206.82 89.90 Z M 223.22 89.90 L 232.82 89.90 L 232.82 99.50 L 223.22 99.50 L 223.22 89.90 Z M 241.22 89.90 L 250.82 89.90 L 250.82 99.50 L 241.22 99.50 L 241.22 89.90 Z M 172.82 109.90 L 182.42 109.90 L 182.42 119.50 L 172.82 119.50 L 172.82 109.90 Z M 189.22 109.90 L 198.82 109.90 L 198.82 119.50 L 189.22 119.50 L 189.22 109.90 Z M 206.82 109.90 L 216.42 109.90 L 216.42 119.50 L 206.82 119.50 L 206.82 109.90 Z M 223.22 109.90 L 232.82 109.90 L 232.82 119.50 L 223.22 119.50 L 223.22 109.90 Z M 241.22 109.90 L 250.82 109.90 L 250.82 119.50 L 241.22 119.50 L 241.22 109.90 Z M 172.82 129.90 L 182.42 129.90 L 182.42 139.50 L 172.82 139.50 L 172.82 129.90 Z M 189.22 129.90 L 198.82 129.90 L 198.82 139.50 L 189.22 139.50 L 189.22 129.90 Z M 206.82 129.90 L 216.42 129.90 L 216.42 139.50 L 206.82 139.50 L 206.82 129.90 Z M 223.22 129.90 L 232.82 129.90 L 232.82 139.50 L 223.22 139.50 L 223.22 129.90 Z M 241.22 129.90 L 250.82 129.90 L 250.82 139.50 L 241.22 139.50 L 241.22 129.90 Z M 172.82 149.90 L 182.42 149.90 L 182.42 159.50 L 172.82 159.50 L 172.82 149.90 Z M 189.22 149.90 L 198.82 149.90 L 198.82 159.50 L 189.22 159.50 L 189.22 149.90 Z M 206.82 149.90 L 216.42 149.90 L 216.42 159.50 L 206.82 159.50 L 206.82 149.90 Z M 223.22 149.90 L 232.82 149.90 L 232.82 159.50 L 223.22 159.50 L 223.22 149.90 Z M 241.22 149.90 L 250.82 149.90 L 250.82 159.50 L 241.22 159.50 L 241.22 149.90 Z M 172.82 169.90 L 182.42 169.90 L 182.42 179.50 L 172.82 179.50 L 172.82 169.90 Z M 189.22 169.90 L 198.82 169.90 L 198.82 179.50 L 189.22 179.50 L 189.22 169.90 Z M 206.82 169.90 L 216.42 169.90 L 216.42 179.50 L 206.82 179.50 L 206.82 169.90 Z M 223.22 169.90 L 232.82 169.90 L 232.82 179.50 L 223.22 179.50 L 223.22 169.90 Z M 241.22 169.90 L 250.82 169.90 L 250.82 179.50 L 241.22 179.50 L 241.22 169.90 Z M 172.82 189.90 L 182.42 189.90 L 182.42 199.50 L 172.82 199.50 L 172.82 189.90 Z M 189.22 189.90 L 198.82 189.90 L 198.82 199.50 L 189.22 199.50 L 189.22 189.90 Z M 206.82 189.90 L 216.42 189.90 L 216.42 199.50 L 206.82 199.50 L 206.82 189.90 Z M 223.22 189.90 L 232.82 189.90 L 232.82 199.50 L 223.22 199.50 L 223.22 189.90 Z M 241.22 189.90 L 250.82 189.90 L 250.82 199.50 L 241.22 199.50 L 241.22 189.90 Z M 172.82 209.90 L 182.42 209.90 L 182.42 219.50 L 172.82 219.50 L 172.82 209.90 Z M 189.22 209.90 L 198.82 209.90 L 198.82 219.50 L 189.22 219.50 L 189.22 209.90 Z M 206.82 209.90 L 216.42 209.90 L 216.42 219.50 L 206.82 219.50 L 206.82 209.90 Z M 223.22 209.90 L 232.82 209.90 L 232.82 219.50 L 223.22 219.50 L 223.22 209.90 Z M 241.22 209.90 L 250.82 209.90 L 250.82 219.50 L 241.22 219.50 L 241.22 209.90 Z M 172.82 229.90 L 182.42 229.90 L 182.42 239.50 L 172.82 239.50 L 172.82 229.90 Z M 189.22 229.90 L 198.82 229.90 L 198.82 239.50 L 189.22 239.50 L 189.22 229.90 Z M 206.82 229.90 L 216.42 229.90 L 216.42 239.50 L 206.82 239.50 L 206.82 229.90 Z M 223.22 229.90 L 232.82 229.90 L 232.82 239.50 L 223.22 239.50 L 223.22 229.90 Z M 241.22 229.90 L 250.82 229.90 L 250.82 239.50 L 241.22 239.50 L 241.22 229.90 Z" fill="#deebfd" fill-opacity="0.5" fill-rule="evenodd" group-id="1" id="矩形_657_拷贝_7" node-id="22" stroke="none" target-height="149.6" target-width="78" target-x="172.822" target-y="89.9"></path><path d="M 26.32 117.44 L 116.39 98.70 L 158.53 301.16 L 68.46 319.90 Z" fill="#ecf4ff" fill-opacity="0.5" fill-rule="evenodd" group-id="1" id="矩形_654_拷贝" node-id="23" stroke="none" target-height="221.2" target-width="132.209" target-x="26.317" target-y="98.7"></path><path d="M 40.75 130.55 L 49.16 128.80 L 50.91 137.22 L 42.50 138.97 Z M 55.12 127.56 L 63.53 125.81 L 65.28 134.23 L 56.87 135.98 Z M 70.54 124.35 L 78.95 122.60 L 80.70 131.02 L 72.29 132.77 Z M 84.91 121.36 L 93.32 119.61 L 95.07 128.03 L 86.66 129.78 Z M 100.68 118.07 L 109.09 116.32 L 110.84 124.75 L 102.43 126.50 Z M 44.40 148.09 L 52.81 146.34 L 54.56 154.76 L 46.15 156.51 Z M 58.77 145.10 L 67.18 143.35 L 68.93 151.77 L 60.52 153.52 Z M 74.19 141.89 L 82.60 140.14 L 84.35 148.56 L 75.94 150.31 Z M 88.56 138.90 L 96.97 137.15 L 98.72 145.57 L 90.31 147.32 Z M 104.33 135.62 L 112.74 133.87 L 114.49 142.29 L 106.08 144.04 Z M 48.05 165.64 L 56.46 163.88 L 58.21 172.31 L 49.80 174.06 Z M 62.42 162.65 L 70.83 160.90 L 72.58 169.32 L 64.17 171.07 Z M 77.84 159.44 L 86.25 157.69 L 88.00 166.11 L 79.59 167.86 Z M 92.21 156.44 L 100.62 154.69 L 102.37 163.12 L 93.96 164.87 Z M 107.98 153.16 L 116.39 151.41 L 118.14 159.83 L 109.73 161.58 Z M 51.70 183.18 L 60.11 181.43 L 61.86 189.85 L 53.45 191.60 Z M 66.07 180.19 L 74.48 178.44 L 76.23 186.86 L 67.82 188.61 Z M 81.49 176.98 L 89.90 175.23 L 91.65 183.65 L 83.24 185.40 Z M 95.86 173.99 L 104.27 172.24 L 106.02 180.66 L 97.61 182.41 Z M 111.63 170.71 L 120.04 168.96 L 121.79 177.38 L 113.38 179.13 Z M 55.35 200.72 L 63.76 198.97 L 65.52 207.40 L 57.10 209.15 Z M 69.72 197.73 L 78.13 195.98 L 79.89 204.41 L 71.47 206.16 Z M 85.14 194.52 L 93.55 192.77 L 95.31 201.19 L 86.89 202.95 Z M 99.51 191.53 L 107.92 189.78 L 109.67 198.20 L 101.26 199.96 Z M 115.28 188.25 L 123.69 186.50 L 125.44 194.92 L 117.03 196.67 Z M 59.00 218.27 L 67.41 216.52 L 69.16 224.94 L 60.75 226.69 Z M 73.37 215.28 L 81.78 213.53 L 83.53 221.95 L 75.12 223.70 Z M 88.79 212.07 L 97.20 210.32 L 98.95 218.74 L 90.54 220.49 Z M 103.16 209.08 L 111.57 207.33 L 113.32 215.75 L 104.91 217.50 Z M 118.93 205.80 L 127.34 204.04 L 129.09 212.47 L 120.68 214.22 Z M 62.66 235.81 L 71.07 234.06 L 72.82 242.48 L 64.41 244.24 Z M 77.02 232.82 L 85.44 231.07 L 87.19 239.49 L 78.78 241.24 Z M 92.44 229.61 L 100.86 227.86 L 102.61 236.28 L 94.20 238.03 Z M 106.81 226.62 L 115.22 224.87 L 116.98 233.29 L 108.57 235.04 Z M 122.58 223.34 L 131.00 221.59 L 132.75 230.01 L 124.34 231.76 Z M 66.31 253.36 L 74.72 251.61 L 76.47 260.03 L 68.06 261.78 Z M 80.68 250.37 L 89.09 248.62 L 90.84 257.04 L 82.43 258.79 Z M 96.10 247.16 L 104.51 245.41 L 106.26 253.83 L 97.85 255.58 Z M 110.47 244.17 L 118.88 242.42 L 120.63 250.84 L 112.22 252.59 Z M 126.24 240.88 L 134.65 239.13 L 136.40 247.56 L 127.99 249.31 Z" fill="#deebfd" fill-opacity="0.5" fill-rule="evenodd" group-id="1" id="矩形_657_拷贝_8" node-id="24" stroke="none" target-height="145.456" target-width="95.655" target-x="40.746" target-y="116.323"></path><path d="M 297.76 122.77 L 375.09 137.93 L 341.09 311.43 L 263.76 296.27 Z" fill="#ecf4ff" fill-opacity="0.5" fill-rule="evenodd" group-id="1" id="矩形_654_拷贝_2" node-id="25" stroke="none" target-height="188.655" target-width="111.32901" target-x="263.759" target-y="122.773"></path><path d="M 304.79 137.89 L 312.02 139.31 L 310.60 146.53 L 303.38 145.11 Z M 317.13 140.31 L 324.35 141.73 L 322.94 148.94 L 315.72 147.53 Z M 330.37 142.91 L 337.59 144.32 L 336.18 151.54 L 328.96 150.12 Z M 342.71 145.32 L 349.93 146.74 L 348.51 153.96 L 341.29 152.54 Z M 356.25 147.98 L 363.47 149.39 L 362.06 156.61 L 354.84 155.19 Z M 301.84 152.92 L 309.07 154.34 L 307.66 161.55 L 300.43 160.14 Z M 314.19 155.34 L 321.41 156.76 L 319.99 163.97 L 312.78 162.56 Z M 327.43 157.94 L 334.65 159.35 L 333.23 166.57 L 326.01 165.15 Z M 339.76 160.35 L 346.98 161.77 L 345.57 168.98 L 338.35 167.57 Z M 353.31 163.01 L 360.52 164.42 L 359.11 171.64 L 351.89 170.22 Z M 298.90 167.96 L 306.13 169.38 L 304.71 176.59 L 297.49 175.18 Z M 311.25 170.38 L 318.46 171.79 L 317.05 179.01 L 309.83 177.59 Z M 324.48 172.97 L 331.70 174.39 L 330.29 181.60 L 323.07 180.19 Z M 336.82 175.39 L 344.04 176.81 L 342.62 184.02 L 335.40 182.61 Z M 350.36 178.05 L 357.58 179.46 L 356.17 186.68 L 348.95 185.26 Z M 295.95 182.99 L 303.18 184.41 L 301.77 191.63 L 294.54 190.21 Z M 308.30 185.41 L 315.52 186.82 L 314.10 194.05 L 306.88 192.63 Z M 321.54 188.00 L 328.75 189.41 L 327.34 196.64 L 320.12 195.23 Z M 333.87 190.42 L 341.09 191.83 L 339.67 199.06 L 332.45 197.64 Z M 347.41 193.07 L 354.63 194.49 L 353.21 201.71 L 346.00 200.30 Z M 293.00 198.03 L 300.23 199.44 L 298.81 206.66 L 291.59 205.24 Z M 305.35 200.45 L 312.56 201.86 L 311.15 209.08 L 303.93 207.66 Z M 318.58 203.04 L 325.80 204.46 L 324.39 211.67 L 317.17 210.26 Z M 330.92 205.46 L 338.14 206.87 L 336.72 214.09 L 329.50 212.67 Z M 344.46 208.11 L 351.68 209.53 L 350.27 216.74 L 343.05 215.33 Z M 290.05 213.06 L 297.28 214.48 L 295.87 221.70 L 288.64 220.28 Z M 302.40 215.49 L 309.62 216.90 L 308.20 224.12 L 300.98 222.70 Z M 315.64 218.08 L 322.85 219.49 L 321.44 226.71 L 314.22 225.29 Z M 327.97 220.50 L 335.19 221.91 L 333.77 229.13 L 326.56 227.71 Z M 341.51 223.15 L 348.73 224.57 L 347.32 231.78 L 340.10 230.37 Z M 287.11 228.09 L 294.34 229.51 L 292.92 236.72 L 285.69 235.31 Z M 299.45 230.51 L 306.67 231.93 L 305.26 239.14 L 298.04 237.73 Z M 312.69 233.11 L 319.91 234.52 L 318.50 241.74 L 311.28 240.32 Z M 325.03 235.53 L 332.24 236.94 L 330.83 244.16 L 323.61 242.74 Z M 338.57 238.18 L 345.79 239.59 L 344.37 246.81 L 337.15 245.39 Z M 284.16 243.13 L 291.39 244.55 L 289.97 251.76 L 282.75 250.35 Z M 296.50 245.55 L 303.72 246.97 L 302.31 254.18 L 295.09 252.77 Z M 309.74 248.15 L 316.96 249.56 L 315.55 256.78 L 308.33 255.36 Z M 322.08 250.56 L 329.30 251.98 L 327.88 259.19 L 320.66 257.78 Z M 335.62 253.22 L 342.84 254.63 L 341.43 261.85 L 334.21 260.43 Z" fill="#deebfd" fill-opacity="0.5" fill-rule="evenodd" group-id="1" id="矩形_657_拷贝_9" node-id="26" stroke="none" target-height="123.953995" target-width="80.72299" target-x="282.746" target-y="137.894"></path><path d="M 205.62 270.70 C 297.52 270.70 372.02 295.59 372.02 326.30 C 372.02 357.01 297.52 381.90 205.62 381.90 C 113.72 381.90 39.22 357.01 39.22 326.30 C 39.22 295.59 113.72 270.70 205.62 270.70 Z" fill="url(#linear-gradient)" fill-rule="evenodd" group-id="1" id="椭圆_655" node-id="27" stroke="none" target-height="111.19998" target-width="332.8" target-x="39.222" target-y="270.7"></path></g><path d="M 90.62 169.10 L 57.42 227.10 L 123.42 226.70" fill="none" id="形状_905" node-id="28" stroke="#7dbcf7" stroke-linecap="butt" stroke-width="20" target-height="58" target-width="66" target-x="57.422" target-y="169.1"></path><path d="M 114.22 290.30 L 114.22 160.70" fill="none" id="形状_906" node-id="29" stroke="#7dbcf7" stroke-linecap="butt" stroke-width="20" target-height="129.59999" target-width="0" target-x="114.222" target-y="160.7"></path><path d="M 275.62 169.10 L 242.42 227.10 L 308.42 226.70" fill="none" id="形状_905_拷贝" node-id="30" stroke="#7dbcf7" stroke-linecap="butt" stroke-width="20" target-height="58" target-width="66" target-x="242.422" target-y="169.1"></path><path d="M 298.82 290.30 L 298.82 160.70" fill="none" id="形状_906_拷贝" node-id="31" stroke="#7dbcf7" stroke-linecap="butt" stroke-width="20" target-height="129.59999" target-width="0" target-x="298.822" target-y="160.7"></path><path d="M 176.50 166.07 C 196.06 166.07 211.92 191.34 211.92 222.50 C 211.92 253.66 196.06 278.93 176.50 278.93 C 156.94 278.93 141.08 253.66 141.08 222.50 C 141.08 191.34 156.94 166.07 176.50 166.07 Z" fill="none" id="椭圆_906" node-id="32" stroke="#7dbcf7" stroke-linecap="butt" stroke-width="20" target-height="112.85199" target-width="70.836" target-x="141.082" target-y="166.074"></path><path d="M 335.40 217.25 C 344.50 217.25 340.50 230.57 333.95 230.57 C 327.41 230.57 325.95 217.25 335.40 217.25 Z" fill="#f5b08a" fill-rule="evenodd" group-id="2" id="tou" node-id="34" stroke="none" target-height="13.315002" target-width="18.543" target-x="325.952" target-y="217.254"></path><path d="M 333.95 223.79 C 333.95 223.79 328.85 223.43 328.62 221.13 C 328.52 220.14 327.14 217.37 328.62 216.77 C 330.45 216.02 333.09 214.22 334.92 214.35 C 338.87 214.62 342.06 216.39 341.70 220.88 C 341.53 223.13 341.29 226.57 339.28 227.66 C 338.12 228.29 337.28 228.68 336.37 228.39 C 335.70 228.18 334.98 227.24 334.19 227.66 C 331.59 229.79 333.95 223.79 333.95 223.79 Z" fill="#555555" fill-rule="evenodd" group-id="2" id="形状_79" node-id="35" stroke="none" target-height="15.565002" target-width="14.915985" target-x="327.144" target-y="214.222"></path><path d="M 326.19 308.77 C 325.35 309.07 319.81 308.36 319.65 310.22 C 319.46 312.44 325.23 314.34 325.23 314.34 C 325.23 314.34 329.43 315.71 331.52 313.13 C 331.43 312.17 331.10 311.26 330.56 310.46 C 329.32 309.12 327.03 308.48 326.19 308.77 Z" fill="#3f1f1f" fill-rule="evenodd" group-id="2" id="形状_77" node-id="36" stroke="none" target-height="7.3480225" target-width="12.065002" target-x="319.46" target-y="308.361"></path><path d="M 347.04 304.90 C 347.04 304.90 349.62 308.63 348.74 309.50 C 347.86 310.37 342.44 309.98 342.44 309.98 L 337.59 309.02 L 343.41 305.38 Z" fill="#3f1f1f" fill-rule="evenodd" group-id="2" id="形状_78" node-id="37" stroke="none" target-height="5.470001" target-width="12.026001" target-x="337.592" target-y="304.9"></path><path d="M 333.71 267.85 L 334.68 289.88 L 342.19 306.11 C 342.97 306.39 343.80 306.48 344.62 306.35 C 345.42 306.11 346.17 305.70 346.80 305.14 L 340.25 289.64 L 342.19 266.88 Z" fill="#555555" fill-rule="evenodd" group-id="2" id="tui" node-id="38" stroke="none" target-height="39.59735" target-width="13.088989" target-x="333.709" target-y="266.88"></path><path d="M 324.01 264.46 L 319.17 291.58 L 323.76 311.43 C 324.95 311.73 326.18 311.82 327.40 311.67 C 328.59 311.45 329.73 311.04 330.80 310.46 L 325.95 290.61 L 335.65 268.34 Z" fill="#555555" fill-rule="evenodd" group-id="2" id="tui-2" node-id="39" stroke="none" target-height="47.352722" target-width="16.481995" target-x="319.165" target-y="264.464"></path><path d="M 310.44 215.56 C 310.44 215.56 310.24 210.38 307.77 209.99 C 301.13 208.95 307.77 217.25 307.77 217.25 Z" fill="#f5b08a" fill-rule="evenodd" group-id="2" id="形状_80" node-id="40" stroke="none" target-height="8.304993" target-width="9.311005" target-x="301.128" target-y="208.949"></path><path d="M 339.04 232.02 C 339.04 232.02 349.14 240.17 349.22 242.68 C 349.30 245.18 342.19 253.57 342.19 253.57 L 340.01 250.91 L 344.13 243.41 L 335.40 236.14 Z" fill="#2c88f3" fill-rule="evenodd" group-id="2" id="ge" node-id="41" stroke="none" target-height="21.546997" target-width="13.89801" target-x="335.405" target-y="232.022"></path><path d="M 334.19 228.39 C 332.45 228.39 329.92 227.32 328.13 229.84 C 324.58 234.86 321.83 264.71 321.83 264.71 C 321.83 264.71 320.86 269.79 332.98 269.79 C 345.10 269.79 343.41 263.98 343.41 263.98 C 343.41 263.98 343.58 240.54 339.04 231.30 C 338.12 229.47 336.24 228.34 334.19 228.39 Z" fill="#2c88f3" fill-rule="evenodd" group-id="2" id="yi" node-id="42" stroke="none" target-height="42.473007" target-width="24.237976" target-x="320.864" target-y="227.317"></path><path d="M 332.01 231.05 L 317.95 228.63 L 310.68 215.32 L 307.05 216.77 C 307.05 216.77 311.89 230.97 313.11 232.51 C 314.32 234.04 330.80 236.62 330.80 236.62 Z" fill="#2c88f3" fill-rule="evenodd" group-id="2" id="ge-2" node-id="43" stroke="none" target-height="21.304993" target-width="24.96698" target-x="307.045" target-y="215.317"></path><path d="M 162.16 66.25 C 162.16 89.92 142.97 109.11 119.30 109.11 C 95.63 109.11 76.44 89.92 76.44 66.25 C 76.44 42.58 95.63 23.39 119.30 23.39 C 142.97 23.39 162.16 42.58 162.16 66.25 Z" fill="#7dbcf7" fill-rule="nonzero" group-id="3" id="椭圆_820" node-id="45" stroke="none" target-height="85.718" target-width="85.718" target-x="76.438" target-y="23.391"></path><path d="M 118.82 56.10 C 160.60 26.18 201.27 11.41 209.66 23.10 C 218.04 34.79 190.97 68.53 149.19 98.44 C 107.41 128.36 66.73 143.14 58.35 131.44 C 49.96 119.75 77.04 86.02 118.82 56.10 Z" fill="url(#linear-gradient-2)" fill-rule="evenodd" group-id="3" id="椭圆_818" node-id="46" stroke="none" target-height="131.729" target-width="168.08" target-x="49.963" target-y="11.407"></path><path d="M 131.37 74.76 C 143.90 65.78 156.10 61.35 158.62 64.86 C 161.13 68.37 153.01 78.49 140.48 87.46 C 127.94 96.43 115.74 100.87 113.23 97.36 C 110.71 93.85 118.83 83.73 131.37 74.76 Z" fill="#e7f2fe" fill-rule="evenodd" group-id="3" id="椭圆_818_拷贝" node-id="47" stroke="none" target-height="39.515995" target-width="50.422005" target-x="110.712" target-y="61.351"></path><path d="M 158.31 65.61 L 260.02 132.72 L 141.68 213.90 L 113.53 96.93 C 113.53 96.93 113.76 85.09 132.41 72.96 C 150.24 61.36 158.31 65.61 158.31 65.61 Z" fill="url(#linear-gradient-3)" fill-rule="evenodd" group-id="3" id="形状_824" node-id="48" stroke="none" target-height="152.54099" target-width="146.488" target-x="113.534" target-y="61.359"></path></svg>