<?xml version="1.0" standalone="no"?><!DOCTYPE svg PUBLIC "-//W3C//DTD SVG 1.1//EN" "http://www.w3.org/Graphics/SVG/1.1/DTD/svg11.dtd"><svg height="126" node-id="1" sillyvg="true" template-height="126" template-width="126" version="1.1" viewBox="0 0 126 126" width="126" xmlns="http://www.w3.org/2000/svg" xmlns:xlink="http://www.w3.org/1999/xlink"><defs node-id="352"></defs><path d="M 105.70 60.80 L 102.60 60.20 L 97.20 57.90 L 91.70 54.50 L 89.20 51.60 L 88.00 48.50 L 85.90 45.40 L 83.60 43.30 L 81.00 41.40 L 78.20 39.90 L 73.70 38.60 L 72.20 38.50 L 68.40 39.30 L 65.90 39.40 L 61.60 39.00 L 59.80 38.60 L 54.90 36.30 L 4.50 65.40 L 3.10 66.40 L 1.40 69.10 L 1.00 72.10 L 2.10 75.10 L 4.50 77.40 L 54.70 106.60 L 57.00 107.70 L 59.30 108.30 L 61.70 108.50 L 64.10 108.30 L 66.40 107.70 L 68.70 106.60 L 122.30 75.40 L 123.60 74.10 L 124.50 72.40 L 125.00 70.50 L 124.90 68.90 L 124.20 67.50 L 123.20 66.20 L 120.00 64.10 L 117.10 62.90 L 111.00 61.40 L 105.70 60.80 Z" fill="#f3f6fd" fill-rule="nonzero" node-id="356" stroke="none" target-height="72.2" target-width="124" target-x="1" target-y="36.3"></path><path d="M 100.70 80.80 L 100.70 82.10 L 100.40 82.50 L 87.00 90.30 L 86.30 90.50 L 85.50 90.30 L 75.40 84.50 L 75.10 84.00 L 75.10 82.80 L 75.40 83.20 L 85.50 89.10 L 86.30 89.20 L 87.00 89.10 L 97.00 83.20 L 100.70 80.80 Z" fill="#e1e9f4" fill-rule="nonzero" node-id="358" stroke="none" target-height="9.699997" target-width="25.599998" target-x="75.1" target-y="80.8"></path><path d="M 85.70 72.40 L 92.00 83.30 L 94.50 82.00 L 92.80 64.00 L 85.60 67.90 Z" fill="#e1e9f4" fill-rule="nonzero" node-id="360" stroke="none" target-height="19.300003" target-width="8.900002" target-x="85.6" target-y="64"></path><path d="M 91.20 67.50 L 91.20 69.40 L 90.60 70.10 L 70.00 82.10 L 68.00 82.30 L 32.30 61.90 L 31.80 61.10 L 31.80 59.30 L 32.40 60.00 L 68.00 80.50 L 70.00 80.30 L 90.60 68.30 L 91.20 67.50 Z" fill="#e1e9f4" fill-rule="nonzero" node-id="362" stroke="none" target-height="23.000004" target-width="59.399998" target-x="31.8" target-y="59.3"></path><path d="M 39.70 97.40 L 40.70 95.80 L 41.20 94.00 L 42.20 93.20 L 44.90 91.20 L 46.30 91.00 L 47.80 91.80 L 49.10 90.10 L 45.70 87.90 L 44.30 89.60 L 45.00 90.20 L 41.20 92.10 L 42.50 88.40 L 42.70 84.90 L 44.10 80.40 L 47.10 79.80 L 47.90 79.10 L 45.30 78.90 L 43.80 78.30 L 42.40 78.70 L 42.30 79.90 L 39.30 86.30 L 37.70 88.10 L 36.70 85.90 L 36.50 78.80 L 37.90 78.40 L 38.60 77.70 L 36.80 77.60 L 35.80 77.10 L 34.70 77.60 L 33.60 82.20 L 33.80 86.90 L 33.30 89.40 L 33.60 91.60 L 33.00 94.00 L 39.30 97.70 L 39.70 97.40 Z" fill="#e1e9f4" fill-rule="nonzero" node-id="364" stroke="none" target-height="20.599998" target-width="16.099998" target-x="33" target-y="77.1"></path><path d="M 1.10 70.60 L 27.20 85.80 L 36.50 80.40 L 7.50 63.60 L 8.10 63.30 L 37.00 80.10 L 46.40 74.70 L 17.40 57.90 L 17.80 57.70 L 46.80 74.50 L 56.20 69.00 L 27.30 52.20 L 27.60 52.00 L 56.60 68.80 L 65.90 63.40 L 37.00 46.60 L 37.50 46.30 L 66.50 63.10 L 75.80 57.70 L 46.80 40.90 L 47.40 40.60 L 115.20 79.70 L 114.70 80.10 L 76.20 58.00 L 66.90 63.30 L 105.40 85.40 L 104.90 85.70 L 66.40 63.70 L 37.50 80.40 L 76.00 102.40 L 75.40 102.70 L 36.90 80.70 L 27.70 86.00 L 65.80 107.90 L 65.00 108.10 L 1.00 71.20 L 1.10 70.60 Z" fill="#fdfeff" fill-rule="nonzero" node-id="366" stroke="none" target-height="67.5" target-width="114.2" target-x="1" target-y="40.6"></path><g node-id="1226"><path d="M 91.50 37.90 L 55.90 17.50 L 54.70 18.10 L 56.30 18.60 L 55.60 19.70 L 55.60 43.50 L 90.60 63.70 L 91.60 65.30 L 92.70 64.60 L 92.80 64.00 L 92.80 40.20 L 92.50 38.90 L 91.50 37.90 Z" fill="#6262aa" fill-rule="nonzero" group-id="1" node-id="370" stroke="none" target-height="47.800003" target-width="38.100002" target-x="54.7" target-y="17.5"></path><g node-id="1316"><g node-id="1378"><g node-id="1391"><path d="M 90.70 38.40 L 91.60 39.40 L 92.00 40.70 L 91.90 64.50 L 91.60 65.30 L 90.60 65.30 L 55.60 45.00 L 54.60 44.00 L 54.30 42.70 L 54.30 18.90 L 54.40 18.40 L 55.10 18.00 L 90.70 38.40 Z" fill="#2a2a5e" fill-rule="nonzero" group-id="1,91,153,166" node-id="378" stroke="none" target-height="47.300003" target-width="37.7" target-x="54.3" target-y="18"></path></g></g></g><path d="M 90.70 39.90 L 90.60 63.70 L 55.60 43.50 L 55.60 19.70 Z" fill="#3887e5" fill-rule="nonzero" group-id="1,92" node-id="385" stroke="none" target-height="44" target-width="35.1" target-x="55.6" target-y="19.7"></path></g><g node-id="1227"><g node-id="1318"><g node-id="1379"><g node-id="1392"><path d="M 91.20 66.00 L 91.20 67.90 L 90.60 68.60 L 70.00 80.60 L 68.70 80.90 L 67.40 80.60 L 31.90 60.00 L 31.80 57.70 L 32.30 57.00 L 52.90 45.00 L 54.30 44.70 L 55.60 45.00 L 90.60 65.30 L 91.20 66.00 Z" fill="#83a1cc" fill-rule="nonzero" group-id="2,93,154,167" node-id="397" stroke="none" target-height="36.2" target-width="59.399998" target-x="31.8" target-y="44.7"></path></g></g></g><g node-id="1319"><g node-id="1380"><g node-id="1393"><g node-id="1398"><path d="M 91.20 66.00 L 91.20 67.90 L 90.60 68.60 L 70.00 80.60 L 68.00 80.80 L 32.30 60.40 L 31.80 59.60 L 31.80 57.70 L 32.40 58.50 L 68.00 79.00 L 70.00 78.70 L 90.60 66.80 L 91.20 66.00 Z" fill="#9eb5df" fill-rule="nonzero" group-id="2,94,155,168,173" node-id="410" stroke="none" target-height="23.100002" target-width="59.399998" target-x="31.8" target-y="57.7"></path></g><path d="M 90.60 65.20 L 91.20 66.00 L 90.60 66.80 L 70.00 78.70 L 68.00 79.00 L 32.40 58.50 L 31.80 57.70 L 32.30 57.00 L 52.90 45.00 L 55.00 44.80 L 90.60 65.20 Z" fill="#dee7f8" fill-rule="nonzero" group-id="2,94,155,168,174" node-id="415" stroke="none" target-height="34.2" target-width="59.399998" target-x="31.8" target-y="44.8"></path></g></g><path d="M 64.60 66.90 L 53.00 60.30 L 47.00 63.80 L 58.80 70.60 L 64.60 67.40 L 64.60 66.90 Z" fill="#b6cbea" fill-rule="nonzero" group-id="2,94" node-id="420" stroke="none" target-height="10.299999" target-width="17.599998" target-x="47" target-y="60.3"></path></g></g><g node-id="1228"><path d="M 61.20 50.70 L 60.40 51.10 L 59.00 50.30 L 59.70 49.80 Z" fill="#3a3a77" fill-rule="nonzero" group-id="3" node-id="426" stroke="none" target-height="1.2999992" target-width="2.2000008" target-x="59" target-y="49.8"></path></g><g node-id="1229"><path d="M 59.40 49.60 L 58.60 50.10 L 57.20 49.20 L 58.00 48.80 Z" fill="#3a3a77" fill-rule="nonzero" group-id="4" node-id="431" stroke="none" target-height="1.2999992" target-width="2.2000008" target-x="57.2" target-y="48.8"></path></g><g node-id="1230"><path d="M 58.30 50.30 L 56.90 51.10 L 55.50 50.20 L 56.80 49.40 Z" fill="#3a3a77" fill-rule="nonzero" group-id="5" node-id="436" stroke="none" target-height="1.699997" target-width="2.7999992" target-x="55.5" target-y="49.4"></path></g><g node-id="1231"><path d="M 66.50 57.00 L 65.10 57.80 L 63.60 56.90 L 65.00 56.10 Z" fill="#3a3a77" fill-rule="nonzero" group-id="6" node-id="441" stroke="none" target-height="1.7000008" target-width="2.9000015" target-x="63.6" target-y="56.1"></path></g><g node-id="1232"><path d="M 57.20 55.60 L 55.80 56.40 L 54.40 55.60 L 55.70 54.80 Z" fill="#3a3a77" fill-rule="nonzero" group-id="7" node-id="446" stroke="none" target-height="1.6000023" target-width="2.7999992" target-x="54.4" target-y="54.8"></path></g><g node-id="1233"><path d="M 51.90 54.50 L 50.50 55.30 L 48.60 54.20 L 50.00 53.40 Z" fill="#3a3a77" fill-rule="nonzero" group-id="8" node-id="451" stroke="none" target-height="1.8999977" target-width="3.300003" target-x="48.6" target-y="53.4"></path></g><g node-id="1234"><path d="M 53.70 55.60 L 52.30 56.40 L 50.90 55.50 L 52.20 54.70 Z" fill="#3a3a77" fill-rule="nonzero" group-id="9" node-id="456" stroke="none" target-height="1.7000008" target-width="2.7999992" target-x="50.9" target-y="54.7"></path></g><g node-id="1235"><path d="M 55.50 56.60 L 54.10 57.40 L 52.70 56.60 L 54.00 55.80 Z" fill="#3a3a77" fill-rule="nonzero" group-id="10" node-id="461" stroke="none" target-height="1.6000023" target-width="2.7999992" target-x="52.7" target-y="55.8"></path></g><g node-id="1236"><path d="M 57.30 57.60 L 55.90 58.40 L 54.50 57.60 L 55.80 56.80 Z" fill="#3a3a77" fill-rule="nonzero" group-id="11" node-id="466" stroke="none" target-height="1.6000023" target-width="2.7999992" target-x="54.5" target-y="56.8"></path></g><g node-id="1237"><g node-id="1320"><path d="M 60.10 51.30 L 58.70 52.10 L 57.30 51.30 L 58.60 50.50 Z" fill="#3a3a77" fill-rule="nonzero" group-id="12,95" node-id="473" stroke="none" target-height="1.5999985" target-width="2.7999992" target-x="57.3" target-y="50.5"></path></g><g node-id="1321"><path d="M 57.50 51.80 L 56.10 52.60 L 53.80 51.20 L 55.10 50.40 Z" fill="#3a3a77" fill-rule="nonzero" group-id="12,96" node-id="478" stroke="none" target-height="2.199997" target-width="3.7000008" target-x="53.8" target-y="50.4"></path></g><g node-id="1322"><path d="M 61.90 52.30 L 60.50 53.10 L 59.10 52.30 L 60.40 51.50 Z" fill="#3a3a77" fill-rule="nonzero" group-id="12,97" node-id="483" stroke="none" target-height="1.5999985" target-width="2.800003" target-x="59.1" target-y="51.5"></path></g><g node-id="1323"><path d="M 59.30 52.80 L 57.90 53.60 L 56.50 52.80 L 57.80 52.00 Z" fill="#3a3a77" fill-rule="nonzero" group-id="12,98" node-id="488" stroke="none" target-height="1.5999985" target-width="2.7999992" target-x="56.5" target-y="52"></path></g><g node-id="1324"><path d="M 56.20 53.00 L 54.80 53.80 L 52.00 52.20 L 53.40 51.40 Z" fill="#3a3a77" fill-rule="nonzero" group-id="12,99" node-id="493" stroke="none" target-height="2.3999977" target-width="4.200001" target-x="52" target-y="51.4"></path></g><g node-id="1325"><path d="M 63.70 53.40 L 62.30 54.20 L 60.90 53.30 L 62.20 52.50 Z" fill="#3a3a77" fill-rule="nonzero" group-id="12,100" node-id="498" stroke="none" target-height="1.7000008" target-width="2.7999992" target-x="60.9" target-y="52.5"></path></g><g node-id="1326"><path d="M 66.60 53.80 L 65.80 54.20 L 64.40 53.40 L 65.10 52.90 Z" fill="#3a3a77" fill-rule="nonzero" group-id="12,101" node-id="503" stroke="none" target-height="1.2999992" target-width="2.199997" target-x="64.4" target-y="52.9"></path></g><g node-id="1327"><path d="M 61.10 53.90 L 59.70 54.70 L 58.30 53.80 L 59.60 53.00 Z" fill="#3a3a77" fill-rule="nonzero" group-id="12,102" node-id="508" stroke="none" target-height="1.7000008" target-width="2.7999992" target-x="58.3" target-y="53"></path></g><g node-id="1328"><path d="M 58.00 54.10 L 56.60 54.90 L 55.20 54.00 L 56.60 53.20 Z" fill="#3a3a77" fill-rule="nonzero" group-id="12,103" node-id="513" stroke="none" target-height="1.7000008" target-width="2.7999992" target-x="55.2" target-y="53.2"></path></g><g node-id="1329"><path d="M 65.50 54.40 L 64.10 55.20 L 62.60 54.40 L 64.00 53.60 Z" fill="#3a3a77" fill-rule="nonzero" group-id="12,104" node-id="518" stroke="none" target-height="1.6000023" target-width="2.9000015" target-x="62.6" target-y="53.6"></path></g><g node-id="1330"><path d="M 68.40 54.80 L 67.60 55.20 L 66.10 54.40 L 66.90 54.00 Z" fill="#3a3a77" fill-rule="nonzero" group-id="12,105" node-id="523" stroke="none" target-height="1.2000008" target-width="2.300003" target-x="66.1" target-y="54"></path></g><g node-id="1331"><path d="M 55.40 54.60 L 54.00 55.40 L 50.30 53.20 L 51.70 52.40 Z" fill="#3a3a77" fill-rule="nonzero" group-id="12,106" node-id="528" stroke="none" target-height="3" target-width="5.1000023" target-x="50.3" target-y="52.4"></path></g><g node-id="1332"><path d="M 62.90 54.90 L 61.50 55.70 L 60.10 54.90 L 61.40 54.10 Z" fill="#3a3a77" fill-rule="nonzero" group-id="12,107" node-id="533" stroke="none" target-height="1.6000023" target-width="2.800003" target-x="60.1" target-y="54.1"></path></g><g node-id="1333"><path d="M 59.80 55.10 L 58.40 55.90 L 57.00 55.10 L 58.30 54.30 Z" fill="#3a3a77" fill-rule="nonzero" group-id="12,108" node-id="538" stroke="none" target-height="1.6000023" target-width="2.7999992" target-x="57" target-y="54.3"></path></g><g node-id="1334"><path d="M 67.30 55.40 L 65.90 56.20 L 64.40 55.40 L 65.80 54.60 Z" fill="#3a3a77" fill-rule="nonzero" group-id="12,109" node-id="543" stroke="none" target-height="1.6000023" target-width="2.9000015" target-x="64.4" target-y="54.6"></path></g><g node-id="1335"><path d="M 64.70 55.90 L 63.30 56.70 L 61.80 55.90 L 63.20 55.10 Z" fill="#3a3a77" fill-rule="nonzero" group-id="12,110" node-id="548" stroke="none" target-height="1.6000023" target-width="2.8999977" target-x="61.8" target-y="55.1"></path></g><g node-id="1336"><path d="M 61.60 56.20 L 60.20 56.90 L 58.80 56.10 L 60.10 55.30 Z" fill="#3a3a77" fill-rule="nonzero" group-id="12,111" node-id="553" stroke="none" target-height="1.6000023" target-width="2.7999992" target-x="58.8" target-y="55.3"></path></g><g node-id="1337"><path d="M 59.00 56.60 L 57.60 57.40 L 56.20 56.60 L 57.50 55.80 Z" fill="#3a3a77" fill-rule="nonzero" group-id="12,112" node-id="558" stroke="none" target-height="1.6000023" target-width="2.7999992" target-x="56.2" target-y="55.8"></path></g><path d="M 60.80 57.70 L 59.40 58.50 L 58.00 57.60 L 59.30 56.80 Z" fill="#3a3a77" fill-rule="nonzero" group-id="12,113" node-id="563" stroke="none" target-height="1.7000008" target-width="2.7999992" target-x="58" target-y="56.8"></path></g><g node-id="1238"><path d="M 79.10 61.00 L 78.40 61.50 L 76.90 60.60 L 77.70 60.20 Z" fill="#3a3a77" fill-rule="nonzero" group-id="13" node-id="569" stroke="none" target-height="1.2999992" target-width="2.199997" target-x="76.9" target-y="60.2"></path></g><g node-id="1239"><path d="M 77.30 60.00 L 76.60 60.40 L 75.10 59.60 L 75.90 59.10 Z" fill="#3a3a77" fill-rule="nonzero" group-id="14" node-id="574" stroke="none" target-height="1.300003" target-width="2.2000046" target-x="75.1" target-y="59.1"></path></g><g node-id="1240"><path d="M 75.50 58.90 L 74.80 59.40 L 73.30 58.50 L 74.10 58.10 Z" fill="#3a3a77" fill-rule="nonzero" group-id="15" node-id="579" stroke="none" target-height="1.300003" target-width="2.199997" target-x="73.3" target-y="58.1"></path></g><g node-id="1241"><path d="M 79.80 62.70 L 78.40 63.50 L 77.00 62.60 L 78.40 61.80 Z" fill="#3a3a77" fill-rule="nonzero" group-id="16" node-id="584" stroke="none" target-height="1.7000008" target-width="2.800003" target-x="77" target-y="61.8"></path></g><g node-id="1242"><path d="M 79.10 66.20 L 77.70 67.00 L 74.90 65.40 L 76.30 64.60 Z" fill="#3a3a77" fill-rule="nonzero" group-id="17" node-id="589" stroke="none" target-height="2.4000015" target-width="4.199997" target-x="74.9" target-y="64.6"></path></g><g node-id="1243"><path d="M 79.00 64.20 L 77.60 65.00 L 76.20 64.20 L 77.60 63.40 Z" fill="#3a3a77" fill-rule="nonzero" group-id="18" node-id="594" stroke="none" target-height="1.5999985" target-width="2.800003" target-x="76.2" target-y="63.4"></path></g><g node-id="1244"><path d="M 75.40 62.10 L 74.10 62.90 L 72.60 62.10 L 74.00 61.30 Z" fill="#3a3a77" fill-rule="nonzero" group-id="19" node-id="599" stroke="none" target-height="1.6000023" target-width="2.800003" target-x="72.6" target-y="61.3"></path></g><g node-id="1245"><path d="M 74.10 63.40 L 72.80 64.20 L 71.30 63.40 L 72.70 62.60 Z" fill="#3a3a77" fill-rule="nonzero" group-id="20" node-id="604" stroke="none" target-height="1.5999985" target-width="2.7999954" target-x="71.3" target-y="62.6"></path></g><g node-id="1246"><path d="M 73.90 67.20 L 73.30 67.60 L 71.80 66.70 L 72.40 66.40 Z" fill="#3a3a77" fill-rule="nonzero" group-id="21" node-id="609" stroke="none" target-height="1.199997" target-width="2.0999985" target-x="71.8" target-y="66.4"></path></g><g node-id="1247"><path d="M 74.90 68.70 L 74.30 69.00 L 72.80 68.20 L 73.30 67.80 Z" fill="#3a3a77" fill-rule="nonzero" group-id="22" node-id="614" stroke="none" target-height="1.199997" target-width="2.0999985" target-x="72.8" target-y="67.8"></path></g><g node-id="1248"><path d="M 77.40 67.20 L 76.00 68.00 L 72.30 65.90 L 73.70 65.10 Z" fill="#3a3a77" fill-rule="nonzero" group-id="23" node-id="619" stroke="none" target-height="2.9000015" target-width="5.0999985" target-x="72.3" target-y="65.1"></path></g><g node-id="1249"><path d="M 73.30 64.90 L 72.00 65.70 L 70.50 64.90 L 71.90 64.10 Z" fill="#3a3a77" fill-rule="nonzero" group-id="24" node-id="624" stroke="none" target-height="1.5999985" target-width="2.800003" target-x="70.5" target-y="64.1"></path></g><g node-id="1250"><path d="M 75.90 64.40 L 74.60 65.20 L 73.10 64.40 L 74.50 63.60 Z" fill="#3a3a77" fill-rule="nonzero" group-id="25" node-id="629" stroke="none" target-height="1.5999985" target-width="2.800003" target-x="73.1" target-y="63.6"></path></g><g node-id="1251"><path d="M 77.20 63.20 L 75.80 64.00 L 74.40 63.10 L 75.80 62.30 Z" fill="#3a3a77" fill-rule="nonzero" group-id="26" node-id="634" stroke="none" target-height="1.7000008" target-width="2.7999954" target-x="74.4" target-y="62.3"></path></g><g node-id="1252"><path d="M 78.00 61.70 L 76.60 62.40 L 75.20 61.60 L 76.60 60.80 Z" fill="#3a3a77" fill-rule="nonzero" group-id="27" node-id="639" stroke="none" target-height="1.6000023" target-width="2.800003" target-x="75.2" target-y="60.8"></path></g><g node-id="1253"><path d="M 70.20 55.80 L 69.40 56.30 L 67.90 55.40 L 68.70 55.00 Z" fill="#3a3a77" fill-rule="nonzero" group-id="28" node-id="644" stroke="none" target-height="1.2999992" target-width="2.2999954" target-x="67.9" target-y="55"></path></g><g node-id="1254"><path d="M 68.00 61.80 L 66.60 62.60 L 65.10 61.80 L 66.50 61.00 Z" fill="#3a3a77" fill-rule="nonzero" group-id="29" node-id="649" stroke="none" target-height="1.5999985" target-width="2.9000015" target-x="65.1" target-y="61"></path></g><g node-id="1255"><path d="M 63.40 57.20 L 62.00 58.00 L 60.60 57.10 L 61.90 56.30 Z" fill="#3a3a77" fill-rule="nonzero" group-id="30" node-id="654" stroke="none" target-height="1.7000008" target-width="2.800003" target-x="60.6" target-y="56.3"></path></g><g node-id="1256"><g node-id="1339"><path d="M 72.00 56.90 L 71.20 57.30 L 69.70 56.50 L 70.50 56.00 Z" fill="#3a3a77" fill-rule="nonzero" group-id="31,114" node-id="661" stroke="none" target-height="1.2999992" target-width="2.300003" target-x="69.7" target-y="56"></path></g><g node-id="1340"><path d="M 70.80 57.50 L 69.50 58.30 L 68.00 57.50 L 69.40 56.70 Z" fill="#3a3a77" fill-rule="nonzero" group-id="31,115" node-id="666" stroke="none" target-height="1.5999985" target-width="2.800003" target-x="68" target-y="56.7"></path></g><g node-id="1341"><path d="M 73.70 57.90 L 73.00 58.30 L 71.50 57.50 L 72.30 57.10 Z" fill="#3a3a77" fill-rule="nonzero" group-id="31,116" node-id="671" stroke="none" target-height="1.2000008" target-width="2.199997" target-x="71.5" target-y="57.1"></path></g><g node-id="1342"><path d="M 68.30 58.00 L 66.90 58.80 L 65.40 58.00 L 66.80 57.20 Z" fill="#3a3a77" fill-rule="nonzero" group-id="31,117" node-id="676" stroke="none" target-height="1.5999985" target-width="2.9000015" target-x="65.4" target-y="57.2"></path></g><g node-id="1343"><path d="M 65.20 58.20 L 63.80 59.00 L 62.40 58.20 L 63.70 57.40 Z" fill="#3a3a77" fill-rule="nonzero" group-id="31,118" node-id="681" stroke="none" target-height="1.5999985" target-width="2.7999954" target-x="62.4" target-y="57.4"></path></g><g node-id="1344"><path d="M 72.60 58.50 L 71.30 59.30 L 69.80 58.50 L 71.20 57.70 Z" fill="#3a3a77" fill-rule="nonzero" group-id="31,119" node-id="686" stroke="none" target-height="1.5999985" target-width="2.7999954" target-x="69.8" target-y="57.7"></path></g><g node-id="1345"><path d="M 62.60 58.70 L 61.20 59.50 L 59.80 58.70 L 61.10 57.90 Z" fill="#3a3a77" fill-rule="nonzero" group-id="31,120" node-id="691" stroke="none" target-height="1.5999985" target-width="2.7999992" target-x="59.8" target-y="57.9"></path></g><g node-id="1346"><path d="M 70.00 59.00 L 68.70 59.80 L 67.20 59.00 L 68.60 58.20 Z" fill="#3a3a77" fill-rule="nonzero" group-id="31,121" node-id="696" stroke="none" target-height="1.5999985" target-width="2.800003" target-x="67.2" target-y="58.2"></path></g><g node-id="1347"><path d="M 67.00 59.30 L 65.60 60.10 L 64.10 59.20 L 65.50 58.40 Z" fill="#3a3a77" fill-rule="nonzero" group-id="31,122" node-id="701" stroke="none" target-height="1.699997" target-width="2.9000015" target-x="64.1" target-y="58.4"></path></g><g node-id="1348"><path d="M 74.40 59.60 L 73.10 60.40 L 71.60 59.50 L 73.00 58.70 Z" fill="#3a3a77" fill-rule="nonzero" group-id="31,123" node-id="706" stroke="none" target-height="1.7000008" target-width="2.800003" target-x="71.6" target-y="58.7"></path></g><g node-id="1349"><path d="M 60.90 59.70 L 59.50 60.50 L 58.00 59.70 L 59.40 58.90 Z" fill="#3a3a77" fill-rule="nonzero" group-id="31,124" node-id="711" stroke="none" target-height="1.5999985" target-width="2.9000015" target-x="58" target-y="58.9"></path></g><g node-id="1350"><path d="M 64.40 59.70 L 63.00 60.50 L 61.50 59.70 L 62.90 58.90 Z" fill="#3a3a77" fill-rule="nonzero" group-id="31,125" node-id="716" stroke="none" target-height="1.5999985" target-width="2.9000015" target-x="61.5" target-y="58.9"></path></g><g node-id="1351"><path d="M 71.80 60.10 L 70.50 60.90 L 69.00 60.00 L 70.40 59.20 Z" fill="#3a3a77" fill-rule="nonzero" group-id="31,126" node-id="721" stroke="none" target-height="1.7000008" target-width="2.800003" target-x="69" target-y="59.2"></path></g><g node-id="1352"><path d="M 68.80 60.30 L 67.40 61.10 L 65.90 60.20 L 67.30 59.50 Z" fill="#3a3a77" fill-rule="nonzero" group-id="31,127" node-id="726" stroke="none" target-height="1.5999985" target-width="2.9000015" target-x="65.9" target-y="59.5"></path></g><g node-id="1353"><path d="M 76.20 60.60 L 74.90 61.40 L 73.40 60.60 L 74.80 59.80 Z" fill="#3a3a77" fill-rule="nonzero" group-id="31,128" node-id="731" stroke="none" target-height="1.6000023" target-width="2.7999954" target-x="73.4" target-y="59.8"></path></g><g node-id="1354"><path d="M 62.70 60.70 L 61.30 61.50 L 59.80 60.70 L 61.20 59.90 Z" fill="#3a3a77" fill-rule="nonzero" group-id="31,129" node-id="736" stroke="none" target-height="1.5999985" target-width="2.9000015" target-x="59.8" target-y="59.9"></path></g><g node-id="1355"><path d="M 73.60 61.10 L 72.30 61.90 L 70.80 61.10 L 72.20 60.30 Z" fill="#3a3a77" fill-rule="nonzero" group-id="31,130" node-id="741" stroke="none" target-height="1.6000023" target-width="2.7999954" target-x="70.8" target-y="60.3"></path></g><g node-id="1356"><path d="M 70.60 61.30 L 69.20 62.10 L 67.70 61.30 L 69.10 60.50 Z" fill="#3a3a77" fill-rule="nonzero" group-id="31,131" node-id="746" stroke="none" target-height="1.5999985" target-width="2.9000015" target-x="67.7" target-y="60.5"></path></g><g node-id="1357"><path d="M 64.40 61.80 L 63.10 62.60 L 61.60 61.70 L 63.00 60.90 Z" fill="#3a3a77" fill-rule="nonzero" group-id="31,132" node-id="751" stroke="none" target-height="1.699997" target-width="2.800003" target-x="61.6" target-y="60.9"></path></g><g node-id="1358"><path d="M 72.30 62.40 L 71.00 63.20 L 69.50 62.30 L 70.90 61.50 Z" fill="#3a3a77" fill-rule="nonzero" group-id="31,133" node-id="756" stroke="none" target-height="1.7000008" target-width="2.800003" target-x="69.5" target-y="61.5"></path></g><g node-id="1359"><path d="M 66.20 62.80 L 64.90 63.60 L 63.40 62.80 L 64.80 62.00 Z" fill="#3a3a77" fill-rule="nonzero" group-id="31,134" node-id="761" stroke="none" target-height="1.5999985" target-width="2.7999954" target-x="63.4" target-y="62"></path></g><g node-id="1360"><path d="M 69.70 62.90 L 68.40 63.60 L 66.90 62.80 L 68.30 62.00 Z" fill="#3a3a77" fill-rule="nonzero" group-id="31,135" node-id="766" stroke="none" target-height="1.5999985" target-width="2.7999954" target-x="66.9" target-y="62"></path></g><path d="M 68.00 63.80 L 66.70 64.60 L 65.20 63.80 L 66.60 63.00 Z" fill="#3a3a77" fill-rule="nonzero" group-id="31,136" node-id="771" stroke="none" target-height="1.5999985" target-width="2.800003" target-x="65.2" target-y="63"></path></g><g node-id="1257"><path d="M 69.10 56.50 L 67.70 57.30 L 66.20 56.40 L 67.60 55.60 Z" fill="#3a3a77" fill-rule="nonzero" group-id="32" node-id="777" stroke="none" target-height="1.7000008" target-width="2.9000015" target-x="66.2" target-y="55.6"></path></g><g node-id="1258"><path d="M 80.90 62.00 L 80.20 62.50 L 78.70 61.60 L 79.50 61.20 Z" fill="#3a3a77" fill-rule="nonzero" group-id="33" node-id="782" stroke="none" target-height="1.2999992" target-width="2.2000046" target-x="78.7" target-y="61.2"></path></g><g node-id="1259"><path d="M 83.60 63.60 L 82.90 64.10 L 80.50 62.70 L 81.30 62.20 Z" fill="#3a3a77" fill-rule="nonzero" group-id="34" node-id="787" stroke="none" target-height="1.8999977" target-width="3.0999985" target-x="80.5" target-y="62.2"></path></g><g node-id="1260"><path d="M 80.80 65.30 L 79.40 66.00 L 78.00 65.20 L 79.30 64.40 Z" fill="#3a3a77" fill-rule="nonzero" group-id="35" node-id="792" stroke="none" target-height="1.5999985" target-width="2.800003" target-x="78" target-y="64.4"></path></g><g node-id="1261"><path d="M 82.50 64.30 L 81.20 65.00 L 78.80 63.70 L 80.10 62.90 Z" fill="#3a3a77" fill-rule="nonzero" group-id="36" node-id="797" stroke="none" target-height="2.0999985" target-width="3.699997" target-x="78.8" target-y="62.9"></path></g><g node-id="1262"><path d="M 64.80 52.70 L 64.00 53.20 L 62.60 52.30 L 63.30 51.90 Z" fill="#3a3a77" fill-rule="nonzero" group-id="37" node-id="802" stroke="none" target-height="1.2999992" target-width="2.2000046" target-x="62.6" target-y="51.9"></path></g><g node-id="1263"><path d="M 63.00 51.70 L 62.20 52.10 L 60.80 51.30 L 61.50 50.90 Z" fill="#3a3a77" fill-rule="nonzero" group-id="38" node-id="807" stroke="none" target-height="1.199997" target-width="2.2000008" target-x="60.8" target-y="50.9"></path></g><g node-id="1264"><path d="M 71.30 66.70 L 70.70 67.00 L 69.20 66.10 L 69.80 65.80 Z" fill="#3a3a77" fill-rule="nonzero" group-id="39" node-id="812" stroke="none" target-height="1.199997" target-width="2.100006" target-x="69.2" target-y="65.8"></path></g><g node-id="1265"><path d="M 70.30 65.10 L 68.90 65.90 L 67.00 64.80 L 68.40 64.00 Z" fill="#3a3a77" fill-rule="nonzero" group-id="40" node-id="817" stroke="none" target-height="1.9000015" target-width="3.300003" target-x="67" target-y="64"></path></g><g node-id="1266"><path d="M 71.50 63.90 L 70.20 64.70 L 68.70 63.80 L 70.10 63.00 Z" fill="#3a3a77" fill-rule="nonzero" group-id="41" node-id="822" stroke="none" target-height="1.699997" target-width="2.800003" target-x="68.7" target-y="63"></path></g><g node-id="1267"><path d="M 66.20 60.80 L 64.80 61.60 L 63.30 60.70 L 64.70 59.90 Z" fill="#3a3a77" fill-rule="nonzero" group-id="42" node-id="827" stroke="none" target-height="1.699997" target-width="2.8999977" target-x="63.3" target-y="59.9"></path></g><g node-id="1268"><path d="M 73.10 67.70 L 72.50 68.00 L 71.00 67.10 L 71.60 66.80 Z" fill="#3a3a77" fill-rule="nonzero" group-id="43" node-id="832" stroke="none" target-height="1.199997" target-width="2.0999985" target-x="71" target-y="66.8"></path></g><g node-id="1269"><path d="M 59.10 58.70 L 57.70 59.50 L 56.20 58.60 L 57.60 57.80 Z" fill="#3a3a77" fill-rule="nonzero" group-id="44" node-id="837" stroke="none" target-height="1.7000008" target-width="2.8999977" target-x="56.2" target-y="57.8"></path></g><g node-id="1270"><path d="M 86.70 66.90 L 80.00 70.80 L 77.30 69.30 L 84.10 65.40 Z" fill="#b6cbea" fill-rule="nonzero" group-id="45" node-id="842" stroke="none" target-height="5.4000015" target-width="9.399994" target-x="77.3" target-y="65.4"></path></g><g node-id="1271"><path d="M 54.90 48.50 L 48.20 52.50 L 45.50 50.90 L 52.20 47.00 Z" fill="#b6cbea" fill-rule="nonzero" group-id="46" node-id="847" stroke="none" target-height="5.5" target-width="9.400002" target-x="45.5" target-y="47"></path></g><g node-id="1272"><path d="M 77.30 38.20 L 77.20 49.40 L 76.90 50.10 L 76.20 50.00 L 58.70 39.90 L 58.00 39.10 L 57.70 38.10 L 57.70 26.90 L 77.30 38.20 Z" fill="#ffffff" fill-rule="nonzero" group-id="47" node-id="852" stroke="none" target-height="23.199999" target-width="19.600002" target-x="57.7" target-y="26.9"></path></g><g node-id="1273"><path d="M 72.00 37.50 L 73.20 39.20 L 75.30 47.90 L 59.20 38.60 L 60.90 34.50 L 61.40 34.10 L 62.70 34.80 L 64.20 37.10 L 65.00 37.20 L 66.00 35.60 L 66.80 35.80 L 67.40 36.40 L 68.60 39.10 L 69.80 39.90 L 70.50 39.30 L 71.10 37.50 L 72.00 37.50 Z" fill="#6262aa" fill-rule="nonzero" group-id="48" node-id="857" stroke="none" target-height="13.800003" target-width="16.100002" target-x="59.2" target-y="34.1"></path></g><g node-id="1274"><g node-id="1362"><path d="M 77.80 36.50 L 77.70 49.10 L 77.70 49.50 L 77.00 50.00 L 77.20 49.40 L 77.30 36.80 L 77.00 35.70 L 76.20 34.90 L 58.80 24.90 L 58.00 24.80 L 58.90 24.40 L 59.30 24.60 L 76.70 34.60 L 77.50 35.40 L 77.80 36.50 Z" fill="#b6cbea" fill-rule="nonzero" group-id="49,137" node-id="864" stroke="none" target-height="25.6" target-width="19.800003" target-x="58" target-y="24.4"></path></g><g node-id="1363"><path d="M 76.20 34.90 L 77.00 35.70 L 77.30 38.20 L 57.70 26.90 L 57.80 25.00 L 58.30 24.70 L 58.80 24.90 L 76.20 34.90 Z" fill="#4c4a8b" fill-rule="nonzero" group-id="49,138" node-id="869" stroke="none" target-height="13.5" target-width="19.600002" target-x="57.7" target-y="24.7"></path></g><g node-id="1364"><g node-id="1381"><path d="M 73.10 34.10 L 73.50 34.80 L 73.10 35.10 L 72.70 34.30 L 73.10 34.10 Z" fill="#dee7f8" fill-rule="nonzero" group-id="49,139,156" node-id="876" stroke="none" target-height="1" target-width="0.80000305" target-x="72.7" target-y="34.1"></path></g><g node-id="1382"><path d="M 74.60 35.00 L 74.90 36.00 L 74.30 35.60 L 74.30 34.90 L 74.60 35.00 Z" fill="#dee7f8" fill-rule="nonzero" group-id="49,139,157" node-id="881" stroke="none" target-height="1.0999985" target-width="0.5999985" target-x="74.3" target-y="34.9"></path></g><path d="M 76.20 35.90 L 76.60 36.60 L 76.20 36.80 L 75.80 36.10 L 76.20 35.90 Z" fill="#dee7f8" fill-rule="nonzero" group-id="49,139,158" node-id="886" stroke="none" target-height="0.8999977" target-width="0.7999954" target-x="75.8" target-y="35.9"></path></g></g><path d="M 63.90 44.50 L 64.30 45.30 L 64.20 47.20 L 62.50 46.30 L 62.10 45.60 L 62.20 43.70 L 63.90 44.50 Z" fill="#b6cbea" fill-rule="nonzero" node-id="891" stroke="none" target-height="3.5" target-width="2.2000046" target-x="62.1" target-y="43.7"></path><path d="M 67.40 46.60 L 67.80 47.30 L 67.70 49.20 L 66.00 48.30 L 65.60 47.60 L 65.70 45.70 L 67.40 46.60 Z" fill="#b6cbea" fill-rule="nonzero" node-id="893" stroke="none" target-height="3.5" target-width="2.2000046" target-x="65.6" target-y="45.7"></path><path d="M 70.90 48.60 L 71.30 49.30 L 71.30 50.90 L 70.90 51.20 L 69.20 50.00 L 69.10 48.00 L 69.50 47.70 L 70.90 48.60 Z" fill="#b6cbea" fill-rule="nonzero" node-id="895" stroke="none" target-height="3.5" target-width="2.2000046" target-x="69.1" target-y="47.7"></path><path d="M 74.40 50.60 L 74.80 51.30 L 74.80 52.90 L 74.40 53.20 L 72.90 52.40 L 72.50 51.60 L 72.70 49.70 L 74.40 50.60 Z" fill="#b6cbea" fill-rule="nonzero" node-id="897" stroke="none" target-height="3.5" target-width="2.300003" target-x="72.5" target-y="49.7"></path><path d="M 77.90 52.60 L 78.30 53.30 L 78.30 55.00 L 77.90 55.20 L 76.10 54.10 L 76.00 52.00 L 76.40 51.80 L 77.90 52.60 Z" fill="#b6cbea" fill-rule="nonzero" node-id="899" stroke="none" target-height="3.4000015" target-width="2.300003" target-x="76" target-y="51.8"></path><path d="M 81.40 54.60 L 81.80 55.30 L 81.80 57.00 L 81.40 57.20 L 79.90 56.40 L 79.50 55.70 L 79.60 53.80 L 81.40 54.60 Z" fill="#b6cbea" fill-rule="nonzero" node-id="901" stroke="none" target-height="3.4000015" target-width="2.300003" target-x="79.5" target-y="53.8"></path><g node-id="1275"><g node-id="1365"><path d="M 97.70 52.30 L 97.70 62.00 L 97.40 62.50 L 96.80 62.50 L 81.70 53.80 L 81.10 53.10 L 80.80 52.20 L 80.80 42.50 L 97.70 52.30 Z" fill="#a6c2ff" fill-rule="nonzero" group-id="50,140" node-id="907" stroke="none" target-height="20" target-width="16.899994" target-x="80.8" target-y="42.5"></path></g><g node-id="1366"><g node-id="1384"><path d="M 98.20 50.80 L 98.10 61.70 L 97.50 62.50 L 97.70 51.00 L 97.50 50.10 L 96.80 49.50 L 81.80 40.80 L 81.10 40.70 L 82.20 40.50 L 97.30 49.20 L 97.90 49.90 L 98.20 50.80 Z" fill="#1e72c6" fill-rule="nonzero" group-id="50,141,159" node-id="914" stroke="none" target-height="22" target-width="17.099998" target-x="81.1" target-y="40.5"></path></g><g node-id="1385"><path d="M 96.80 49.50 L 97.50 50.10 L 97.70 52.30 L 80.80 42.50 L 81.10 40.70 L 81.80 40.80 L 96.80 49.50 Z" fill="#4c4a8b" fill-rule="nonzero" group-id="50,141,160" node-id="919" stroke="none" target-height="11.599998" target-width="16.899994" target-x="80.8" target-y="40.7"></path></g><g node-id="1386"><g node-id="1394"><path d="M 94.10 48.70 L 94.40 49.60 L 93.90 49.30 L 93.90 48.70 L 94.10 48.70 Z" fill="#dee7f8" fill-rule="nonzero" group-id="50,141,161,169" node-id="926" stroke="none" target-height="0.8999977" target-width="0.5" target-x="93.9" target-y="48.7"></path></g><g node-id="1395"><path d="M 95.50 49.50 L 95.70 50.40 L 95.20 50.10 L 95.20 49.50 L 95.50 49.50 Z" fill="#dee7f8" fill-rule="nonzero" group-id="50,141,161,170" node-id="931" stroke="none" target-height="0.9000015" target-width="0.5" target-x="95.2" target-y="49.5"></path></g><path d="M 96.80 50.30 L 97.20 50.90 L 96.80 51.10 L 96.40 50.50 L 96.80 50.30 Z" fill="#dee7f8" fill-rule="nonzero" group-id="50,141,161,171" node-id="936" stroke="none" target-height="0.79999924" target-width="0.7999954" target-x="96.4" target-y="50.3"></path></g></g></g><g node-id="1276"><path d="M 86.00 46.50 L 85.90 55.20 L 83.10 53.60 L 83.10 44.90 Z" fill="#3a3a77" fill-rule="nonzero" group-id="51" node-id="944" stroke="none" target-height="10.299999" target-width="2.9000015" target-x="83.1" target-y="44.9"></path></g><g node-id="1277"><path d="M 95.40 59.00 L 95.40 60.00 L 87.90 55.60 L 87.90 54.70 Z" fill="#b6cbea" fill-rule="nonzero" group-id="52" node-id="949" stroke="none" target-height="5.299999" target-width="7.5" target-x="87.9" target-y="54.7"></path></g><g node-id="1278"><path d="M 95.40 55.80 L 95.40 57.80 L 87.90 53.40 L 87.90 51.40 Z" fill="#b6cbea" fill-rule="nonzero" group-id="53" node-id="954" stroke="none" target-height="6.3999977" target-width="7.5" target-x="87.9" target-y="51.4"></path></g><g node-id="1279"><path d="M 95.50 52.50 L 95.50 54.50 L 87.90 50.10 L 87.90 48.20 Z" fill="#b6cbea" fill-rule="nonzero" group-id="54" node-id="959" stroke="none" target-height="6.299999" target-width="7.5999985" target-x="87.9" target-y="48.2"></path></g><g node-id="1280"><path d="M 52.60 31.50 L 52.60 43.50 L 52.10 44.10 L 35.60 34.80 L 34.90 34.10 L 34.60 33.10 L 34.70 21.20 L 52.60 31.50 Z" fill="#dee7f8" fill-rule="nonzero" group-id="55" node-id="964" stroke="none" target-height="22.899998" target-width="18" target-x="34.6" target-y="21.2"></path></g><g node-id="1281"><g node-id="1367"><path d="M 53.10 29.90 L 53.10 43.20 L 52.40 44.00 L 52.60 43.50 L 52.60 30.20 L 52.30 29.20 L 51.70 28.50 L 35.70 19.30 L 35.00 19.20 L 35.70 18.90 L 36.10 19.00 L 52.10 28.20 L 52.80 29.00 L 53.10 29.90 Z" fill="#b6cbea" fill-rule="nonzero" group-id="56,142" node-id="971" stroke="none" target-height="25.1" target-width="18.099998" target-x="35" target-y="18.9"></path></g><g node-id="1368"><path d="M 51.70 28.50 L 52.30 29.20 L 52.60 31.50 L 34.70 21.20 L 34.80 19.30 L 35.70 19.30 L 51.70 28.50 Z" fill="#83a1cc" fill-rule="nonzero" group-id="56,143" node-id="976" stroke="none" target-height="12.200001" target-width="17.899998" target-x="34.7" target-y="19.3"></path></g><g node-id="1369"><g node-id="1387"><path d="M 48.80 27.70 L 49.10 28.60 L 48.50 28.30 L 48.50 27.70 L 48.80 27.70 Z" fill="#dee7f8" fill-rule="nonzero" group-id="56,144,162" node-id="983" stroke="none" target-height="0.8999996" target-width="0.5999985" target-x="48.5" target-y="27.7"></path></g><g node-id="1388"><path d="M 50.20 28.50 L 50.50 29.50 L 49.90 29.10 L 49.90 28.50 L 50.20 28.50 Z" fill="#dee7f8" fill-rule="nonzero" group-id="56,144,163" node-id="988" stroke="none" target-height="1" target-width="0.5999985" target-x="49.9" target-y="28.5"></path></g><path d="M 51.60 29.40 L 51.90 30.30 L 51.30 30.00 L 51.30 29.30 L 51.60 29.40 Z" fill="#dee7f8" fill-rule="nonzero" group-id="56,144,164" node-id="993" stroke="none" target-height="1" target-width="0.6000023" target-x="51.3" target-y="29.3"></path></g></g><g node-id="1282"><path d="M 49.80 40.90 L 49.80 41.20 L 36.70 33.70 L 36.70 33.40 Z" fill="#83a1cc" fill-rule="nonzero" group-id="57" node-id="1000" stroke="none" target-height="7.799999" target-width="13.099998" target-x="36.7" target-y="33.4"></path></g><g node-id="1283"><path d="M 39.00 29.00 L 39.00 34.40 L 38.10 33.80 L 38.10 28.50 Z" fill="#1e72c6" fill-rule="nonzero" group-id="58" node-id="1005" stroke="none" target-height="5.9000015" target-width="0.9000015" target-x="38.1" target-y="28.5"></path></g><g node-id="1284"><path d="M 39.90 31.20 L 39.90 34.90 L 39.00 34.40 L 39.00 30.70 Z" fill="#6b9ef9" fill-rule="nonzero" group-id="59" node-id="1010" stroke="none" target-height="4.200001" target-width="0.9000015" target-x="39" target-y="30.7"></path></g><g node-id="1285"><path d="M 41.90 31.00 L 41.80 36.00 L 40.90 35.50 L 40.90 30.50 Z" fill="#6b9ef9" fill-rule="nonzero" group-id="60" node-id="1015" stroke="none" target-height="5.5" target-width="1" target-x="40.9" target-y="30.5"></path></g><g node-id="1286"><path d="M 42.80 29.80 L 42.70 36.50 L 41.80 36.00 L 41.90 29.30 Z" fill="#1e72c6" fill-rule="nonzero" group-id="61" node-id="1020" stroke="none" target-height="7.200001" target-width="1" target-x="41.8" target-y="29.3"></path></g><g node-id="1287"><path d="M 45.60 30.40 L 45.60 38.20 L 44.70 37.60 L 44.70 29.90 Z" fill="#6b9ef9" fill-rule="nonzero" group-id="62" node-id="1025" stroke="none" target-height="8.300001" target-width="0.8999977" target-x="44.7" target-y="29.9"></path></g><g node-id="1288"><path d="M 44.70 28.20 L 44.70 37.60 L 43.80 37.10 L 43.80 27.70 Z" fill="#1e72c6" fill-rule="nonzero" group-id="63" node-id="1030" stroke="none" target-height="9.899998" target-width="0.9000015" target-x="43.8" target-y="27.7"></path></g><g node-id="1289"><path d="M 47.50 35.60 L 47.50 39.30 L 46.60 38.80 L 46.60 35.10 Z" fill="#6b9ef9" fill-rule="nonzero" group-id="64" node-id="1035" stroke="none" target-height="4.200001" target-width="0.9000015" target-x="46.6" target-y="35.1"></path></g><g node-id="1290"><path d="M 48.40 34.40 L 48.40 39.80 L 47.50 39.30 L 47.50 33.90 Z" fill="#1e72c6" fill-rule="nonzero" group-id="65" node-id="1040" stroke="none" target-height="5.8999977" target-width="0.9000015" target-x="47.5" target-y="33.9"></path></g><g node-id="1291"><g node-id="1370"><path d="M 97.00 82.30 L 87.00 88.10 L 85.50 88.10 L 75.40 82.20 L 75.10 81.80 L 75.40 81.40 L 85.40 75.60 L 97.00 82.30 Z" fill="#6262aa" fill-rule="nonzero" group-id="66,145" node-id="1047" stroke="none" target-height="12.5" target-width="21.900002" target-x="75.1" target-y="75.6"></path></g></g><g node-id="1292"><g node-id="1371"><path d="M 100.70 79.90 L 100.70 81.10 L 100.40 81.50 L 86.30 89.50 L 75.40 83.50 L 75.10 83.00 L 75.10 81.80 L 75.40 82.20 L 85.50 88.10 L 86.30 88.20 L 87.00 88.10 L 100.40 80.30 L 100.70 79.90 Z" fill="#2a2a5e" fill-rule="nonzero" group-id="67,146" node-id="1055" stroke="none" target-height="9.599998" target-width="25.599998" target-x="75.1" target-y="79.9"></path></g><path d="M 100.40 79.50 L 100.70 79.90 L 100.40 80.30 L 97.00 82.30 L 85.40 75.60 L 88.80 73.60 L 90.20 73.60 L 100.40 79.50 Z" fill="#4c4a8b" fill-rule="nonzero" group-id="67,147" node-id="1060" stroke="none" target-height="8.700005" target-width="15.299995" target-x="85.4" target-y="73.6"></path></g><g node-id="1293"><g node-id="1373"><path d="M 91.10 79.70 L 90.30 80.20 L 88.80 79.30 L 89.60 78.90 Z" fill="#b6cbea" fill-rule="nonzero" group-id="68,148" node-id="1068" stroke="none" target-height="1.2999954" target-width="2.2999954" target-x="88.8" target-y="78.9"></path></g><g node-id="1374"><path d="M 93.20 81.00 L 92.40 81.40 L 91.00 80.50 L 91.70 80.10 Z" fill="#b6cbea" fill-rule="nonzero" group-id="68,149" node-id="1073" stroke="none" target-height="1.300003" target-width="2.199997" target-x="91" target-y="80.1"></path></g><g node-id="1375"><path d="M 99.60 79.90 L 96.90 81.50 L 86.80 75.60 L 89.50 74.10 Z" fill="#7bb1ff" fill-rule="nonzero" group-id="68,150" node-id="1078" stroke="none" target-height="7.4000015" target-width="12.799995" target-x="86.8" target-y="74.1"></path></g><path d="M 95.30 82.20 L 94.60 82.60 L 93.10 81.80 L 93.80 81.30 Z" fill="#b6cbea" fill-rule="nonzero" group-id="68,151" node-id="1083" stroke="none" target-height="1.2999954" target-width="2.2000046" target-x="93.1" target-y="81.3"></path></g><g node-id="1294"><path d="M 81.30 80.50 L 79.80 81.30 L 78.30 80.50 L 79.80 79.60 Z" fill="#dee7f8" fill-rule="nonzero" group-id="69" node-id="1089" stroke="none" target-height="1.7000046" target-width="3" target-x="78.3" target-y="79.6"></path></g><g node-id="1295"><path d="M 87.60 79.30 L 86.10 80.20 L 84.60 79.30 L 86.10 78.40 Z" fill="#a6c2ff" fill-rule="nonzero" group-id="70" node-id="1094" stroke="none" target-height="1.7999954" target-width="3" target-x="84.6" target-y="78.4"></path></g><g node-id="1296"><path d="M 81.40 82.90 L 79.90 83.80 L 78.40 82.90 L 79.90 82.00 Z" fill="#dee7f8" fill-rule="nonzero" group-id="71" node-id="1099" stroke="none" target-height="1.800003" target-width="3" target-x="78.4" target-y="82"></path></g><g node-id="1297"><path d="M 89.80 85.40 L 86.30 87.50 L 84.80 86.60 L 88.30 84.50 Z" fill="#6b9ef9" fill-rule="nonzero" group-id="72" node-id="1104" stroke="none" target-height="3" target-width="5" target-x="84.8" target-y="84.5"></path></g><g node-id="1298"><path d="M 85.60 85.40 L 84.10 86.20 L 82.70 85.40 L 84.10 84.50 Z" fill="#6b9ef9" fill-rule="nonzero" group-id="73" node-id="1109" stroke="none" target-height="1.699997" target-width="2.9000015" target-x="82.7" target-y="84.5"></path></g><g node-id="1299"><path d="M 83.50 84.10 L 82.00 85.00 L 80.50 84.10 L 82.00 83.30 Z" fill="#dee7f8" fill-rule="nonzero" group-id="74" node-id="1114" stroke="none" target-height="1.699997" target-width="3" target-x="80.5" target-y="83.3"></path></g><g node-id="1300"><path d="M 87.70 84.20 L 86.20 85.00 L 84.70 84.20 L 86.20 83.30 Z" fill="#dee7f8" fill-rule="nonzero" group-id="75" node-id="1119" stroke="none" target-height="1.699997" target-width="3" target-x="84.7" target-y="83.3"></path></g><g node-id="1301"><path d="M 85.60 82.90 L 84.10 83.80 L 82.60 82.90 L 84.10 82.10 Z" fill="#dee7f8" fill-rule="nonzero" group-id="76" node-id="1124" stroke="none" target-height="1.7000046" target-width="3" target-x="82.6" target-y="82.1"></path></g><g node-id="1302"><path d="M 83.40 81.70 L 82.00 82.60 L 80.50 81.70 L 81.90 80.80 Z" fill="#dee7f8" fill-rule="nonzero" group-id="77" node-id="1129" stroke="none" target-height="1.7999954" target-width="2.9000015" target-x="80.5" target-y="80.8"></path></g><g node-id="1303"><path d="M 85.50 80.50 L 84.00 81.40 L 82.50 80.50 L 84.00 79.60 Z" fill="#dee7f8" fill-rule="nonzero" group-id="78" node-id="1134" stroke="none" target-height="1.800003" target-width="3" target-x="82.5" target-y="79.6"></path></g><g node-id="1304"><path d="M 83.40 79.30 L 81.90 80.10 L 80.40 79.30 L 81.90 78.40 Z" fill="#dee7f8" fill-rule="nonzero" group-id="79" node-id="1139" stroke="none" target-height="1.699997" target-width="3" target-x="80.4" target-y="78.4"></path></g><g node-id="1305"><path d="M 85.40 78.10 L 84.00 78.90 L 82.50 78.10 L 84.00 77.20 Z" fill="#a6c2ff" fill-rule="nonzero" group-id="80" node-id="1144" stroke="none" target-height="1.7000046" target-width="2.9000015" target-x="82.5" target-y="77.2"></path></g><g node-id="1306"><path d="M 79.20 81.70 L 77.80 82.50 L 76.30 81.70 L 77.70 80.80 Z" fill="#dee7f8" fill-rule="nonzero" group-id="81" node-id="1149" stroke="none" target-height="1.699997" target-width="2.899994" target-x="76.3" target-y="80.8"></path></g><g node-id="1307"><path d="M 87.60 81.70 L 86.20 82.60 L 84.70 81.70 L 86.20 80.90 Z" fill="#dee7f8" fill-rule="nonzero" group-id="82" node-id="1154" stroke="none" target-height="1.699997" target-width="2.9000015" target-x="84.7" target-y="80.9"></path></g><g node-id="1308"><path d="M 89.80 83.00 L 88.30 83.80 L 86.80 83.00 L 88.30 82.10 Z" fill="#dee7f8" fill-rule="nonzero" group-id="83" node-id="1159" stroke="none" target-height="1.7000046" target-width="3" target-x="86.8" target-y="82.1"></path></g><g node-id="1309"><path d="M 94.00 83.00 L 92.50 83.80 L 91.00 83.00 L 92.50 82.10 Z" fill="#6b9ef9" fill-rule="nonzero" group-id="84" node-id="1164" stroke="none" target-height="1.7000046" target-width="3" target-x="91" target-y="82.1"></path></g><g node-id="1310"><path d="M 91.80 81.80 L 90.40 82.60 L 88.90 81.80 L 90.40 80.90 Z" fill="#dee7f8" fill-rule="nonzero" group-id="85" node-id="1169" stroke="none" target-height="1.699997" target-width="2.9000015" target-x="88.9" target-y="80.9"></path></g><g node-id="1311"><path d="M 89.70 80.50 L 88.20 81.40 L 86.70 80.50 L 88.20 79.70 Z" fill="#dee7f8" fill-rule="nonzero" group-id="86" node-id="1174" stroke="none" target-height="1.7000046" target-width="3" target-x="86.7" target-y="79.7"></path></g><g node-id="1312"><path d="M 86.80 77.30 L 86.00 77.70 L 84.60 76.90 L 85.30 76.40 Z" fill="#b6cbea" fill-rule="nonzero" group-id="87" node-id="1179" stroke="none" target-height="1.2999954" target-width="2.2000046" target-x="84.6" target-y="76.4"></path></g><g node-id="1313"><path d="M 88.90 78.50 L 88.20 78.90 L 86.70 78.10 L 87.40 77.70 Z" fill="#b6cbea" fill-rule="nonzero" group-id="88" node-id="1184" stroke="none" target-height="1.2000046" target-width="2.2000046" target-x="86.7" target-y="77.7"></path></g><g node-id="1314"><path d="M 91.90 84.20 L 90.40 85.00 L 88.90 84.20 L 90.40 83.30 Z" fill="#6b9ef9" fill-rule="nonzero" group-id="89" node-id="1189" stroke="none" target-height="1.699997" target-width="3" target-x="88.9" target-y="83.3"></path></g><path d="M 50.30 59.10 L 46.30 63.30 L 47.40 66.40 L 51.10 62.50 L 50.30 59.10 Z" fill="#ffffff" fill-rule="nonzero" node-id="1192" stroke="none" target-height="7.300003" target-width="4.799999" target-x="46.3" target-y="59.1"></path><path d="M 34.70 76.90 L 35.80 76.30 L 36.80 76.90 L 38.40 76.90 L 38.50 77.30 L 37.10 78.30 L 34.60 79.20 L 34.40 79.00 L 34.30 78.30 L 34.70 76.90 Z" fill="#3a3d4c" fill-rule="nonzero" node-id="1194" stroke="none" target-height="2.899994" target-width="4.200001" target-x="34.3" target-y="76.3"></path><path d="M 36.40 58.60 L 35.20 61.40 L 35.10 62.50 L 35.60 67.10 L 34.60 73.20 L 34.70 77.10 L 35.80 77.30 L 36.60 76.90 L 37.80 70.40 L 39.80 64.20 L 40.50 59.90 L 36.40 58.60 Z" fill="#505366" fill-rule="nonzero" node-id="1196" stroke="none" target-height="18.700005" target-width="5.9000015" target-x="34.6" target-y="58.6"></path><path d="M 42.30 78.60 L 43.70 78.00 L 45.20 78.70 L 47.60 78.90 L 47.80 79.30 L 47.00 79.90 L 44.30 80.30 L 44.40 80.60 L 43.00 80.80 L 42.20 80.30 L 42.30 78.60 Z" fill="#3a3d4c" fill-rule="nonzero" node-id="1198" stroke="none" target-height="2.800003" target-width="5.5999985" target-x="42.2" target-y="78"></path><path d="M 43.70 70.10 L 44.10 65.60 L 43.80 60.90 L 38.60 59.30 L 38.00 62.20 L 38.10 63.40 L 40.20 68.40 L 41.20 74.80 L 42.20 78.70 L 43.00 78.80 L 44.00 78.20 L 43.70 70.10 Z" fill="#5b5d70" fill-rule="nonzero" node-id="1200" stroke="none" target-height="19.500004" target-width="6.0999985" target-x="38" target-y="59.3"></path><g node-id="1315"><g node-id="1377"><g node-id="1390"><g node-id="1397"><path d="M 37.50 46.80 L 38.90 42.80 L 42.70 41.30 L 43.10 41.30 L 43.40 42.40 L 42.70 45.50 L 41.00 46.50 L 40.50 47.60 L 38.00 47.40 L 37.40 47.10 L 37.50 46.80 Z" fill="#ecb4bf" fill-rule="nonzero" group-id="90,152,165,172" node-id="1210" stroke="none" target-height="6.299999" target-width="6" target-x="37.4" target-y="41.3"></path><path d="M 43.80 40.70 L 41.10 39.70 L 39.70 39.80 L 38.30 40.40 L 37.90 41.10 L 37.80 42.20 L 38.20 45.20 L 39.20 45.60 L 40.60 45.20 L 40.80 43.90 L 41.10 43.60 L 41.70 43.90 L 41.80 44.80 L 42.40 44.30 L 42.90 42.60 L 44.00 41.00 L 43.80 40.70 Z" fill="#4c4a8b" fill-rule="nonzero" group-id="90,152,165,172" node-id="1212" stroke="none" target-height="5.8999977" target-width="6.200001" target-x="37.8" target-y="39.7"></path></g><path d="M 40.20 58.20 L 39.30 59.10 L 35.60 54.60 L 35.20 53.70 L 35.40 46.90 L 36.60 45.70 L 37.40 45.60 L 37.90 46.00 L 38.20 47.10 L 37.70 52.70 L 40.20 58.20 Z" fill="#3887e5" fill-rule="nonzero" group-id="90,152,165" node-id="1215" stroke="none" target-height="13.5" target-width="5" target-x="35.2" target-y="45.6"></path><path d="M 43.80 52.80 L 43.70 49.80 L 43.30 48.70 L 40.90 46.70 L 39.10 46.70 L 38.40 46.30 L 38.10 45.70 L 37.20 45.60 L 35.70 46.50 L 35.30 47.50 L 35.90 54.20 L 36.00 59.60 L 36.90 60.70 L 39.60 61.30 L 43.80 60.90 L 43.80 52.80 Z" fill="#6b9ef9" fill-rule="nonzero" group-id="90,152,165" node-id="1217" stroke="none" target-height="15.700001" target-width="8.5" target-x="35.3" target-y="45.6"></path></g></g></g><path d="M 48.60 61.50 L 48.30 61.20 L 48.50 60.60 L 46.70 60.10 L 46.10 60.60 L 47.00 62.00 L 47.90 62.70 L 48.70 62.50 L 49.20 62.10 L 48.60 61.50 Z" fill="#ecb4bf" fill-rule="nonzero" node-id="1222" stroke="none" target-height="2.6000023" target-width="3.1000023" target-x="46.1" target-y="60.1"></path><path d="M 41.10 50.10 L 41.50 48.80 L 42.00 48.50 L 42.80 48.40 L 43.40 48.80 L 43.80 49.80 L 44.10 55.10 L 47.20 60.20 L 46.40 61.20 L 42.20 57.20 L 41.70 56.30 L 41.10 50.10 Z" fill="#3887e5" fill-rule="nonzero" node-id="1224" stroke="none" target-height="12.799999" target-width="6.1000023" target-x="41.1" target-y="48.4"></path></svg>